<svg version="1.2" xmlns="http://www.w3.org/2000/svg" viewBox="0 0 2773 646" width="2773" height="646">
	<path id="Path 0" fill="#93c9da" d="m1716 1.08c-4.67 0.51-14.13 1.86-21 3.01-6.88 1.14-19.25 3.8-27.5 5.9-8.25 2.09-20.63 5.85-27.5 8.34-6.88 2.49-17.9 6.95-24.5 9.91-6.6 2.97-16.72 8-22.5 11.19-5.78 3.19-16.13 9.54-23 14.1-6.88 4.56-17.34 12.16-23.25 16.88-5.91 4.72-16.2 13.88-22.85 20.34-6.66 6.46-15.32 15.49-19.25 20.07-3.93 4.57-7.26 8.62-7.4 9-0.14 0.37 8.86 1.05 20 1.49 11.14 0.45 22.88 1.12 26.09 1.5l5.84 0.69c14.97-13.73 24.27-21.45 30.32-26.01 6.05-4.56 15.95-11.3 22-14.98 6.05-3.69 15.5-8.97 21-11.73 5.5-2.77 14.72-6.96 20.5-9.3 5.78-2.35 15.45-5.85 21.5-7.78 6.05-1.94 16.17-4.68 22.5-6.09 6.33-1.41 16.22-3.28 22-4.15 5.78-0.87 17.03-1.91 25-2.31 7.97-0.41 21.25-0.41 29.5 0 8.25 0.4 19.72 1.44 25.5 2.31 5.78 0.87 15.67 2.74 22 4.15 6.33 1.41 16.45 4.15 22.5 6.09 6.05 1.93 15.72 5.43 21.5 7.78 5.78 2.34 14.21 6.12 18.75 8.39l8.25 4.13 42-23.5c-13.56-8.18-23.8-13.65-31.5-17.44-7.7-3.79-19.17-8.91-25.5-11.39-6.33-2.48-16.67-6.07-23-7.99-6.33-1.91-16.9-4.69-23.5-6.16-6.6-1.48-17.85-3.6-25-4.71-10.3-1.61-19.02-2.09-42-2.34-15.95-0.18-32.83 0.1-37.5 0.61zm292 164.14c-5.78 11.1-10.61 20.77-10.75 21.48-0.14 0.72 1.83 5.46 4.38 10.55 2.54 5.09 6.54 13.98 8.88 19.75 2.33 5.78 5.64 14.78 7.35 20 1.71 5.23 4.43 15.13 6.06 22 1.62 6.88 3.65 17.23 4.51 23 0.85 5.78 1.55 12.08 1.56 14l0.01 3.5c12.79 2.9 21.45 5.5 27.5 7.66 6.05 2.16 11.79 4.13 12.75 4.38 1.52 0.4 1.75-0.31 1.75-5.29 0-3.16-0.7-11.82-1.56-19.25-0.86-7.42-2.65-19.12-3.98-26-1.34-6.87-4.03-18.35-6-25.5-1.96-7.15-5.84-19.07-8.62-26.5-2.77-7.42-8.12-19.8-11.87-27.5-3.76-7.7-9.9-19.07-13.65-25.26-3.75-6.19-7.04-11.25-7.32-11.23-0.28 0.02-5.22 9.11-11 20.21zm-546.12 159.4c-1.86 1.32-6.3 3.39-9.88 4.6-4.89 1.65-8.92 2.21-16.25 2.24l-9.75 0.04c0 10.85 0.7 20.08 1.56 27.5 0.86 7.43 2.65 19.13 3.98 26 1.34 6.88 4.03 18.35 6 25.5 1.96 7.15 5.84 19.08 8.62 26.5 2.77 7.43 8.12 19.8 11.88 27.5 3.76 7.7 9.63 18.73 13.06 24.5 5.29 8.91 6.4 10.24 7.32 8.78 0.59-0.95 3.11-5.43 5.58-9.95 2.47-4.53 6.97-10.9 10-14.15 3.03-3.25 6.68-6.65 8.12-7.55l2.61-1.63c-10.53-20.15-15.36-30.5-17.54-36-2.17-5.5-5.54-14.95-7.48-21-1.94-6.05-4.69-16.17-6.1-22.5-1.41-6.32-3.27-16-4.12-21.5-0.85-5.5-1.82-16.3-2.16-24-0.34-7.7-0.95-14.74-1.35-15.64-0.64-1.46-1.1-1.37-4.1 0.76zm522.37 183.11l-22.25 0.27c-10.21 11.24-17.52 18.48-22.83 23.35-5.32 4.87-14.62 12.58-20.67 17.13-6.05 4.55-15.72 11.19-21.5 14.76-5.78 3.56-15.22 8.85-21 11.75-5.78 2.89-15.22 7.19-21 9.53-5.78 2.35-15.45 5.85-21.5 7.78-6.05 1.94-16.17 4.68-22.5 6.09-6.33 1.41-16.22 3.28-22 4.15-5.78 0.87-17.25 1.91-25.5 2.31-8.25 0.41-21.53 0.41-29.5 0-7.97-0.4-19.22-1.44-25-2.31-5.78-0.87-15.67-2.74-22-4.15-6.33-1.41-16.45-4.16-22.5-6.1-6.05-1.94-14.37-4.85-18.5-6.47-4.12-1.62-13.12-5.66-20-8.99l-12.5-6.06c-31.46 17.62-40.57 23.07-40.54 23.48 0.02 0.41 4.65 3.48 10.29 6.81 5.64 3.34 16.55 9.14 24.25 12.9 7.7 3.76 20.08 9.11 27.5 11.88 7.42 2.78 19.35 6.66 26.5 8.62 7.15 1.97 18.63 4.66 25.5 6 6.88 1.33 18.58 3.12 26 3.98 8.37 0.96 22.05 1.56 36 1.56 13.95 0 27.63-0.6 36-1.56 7.42-0.86 19.13-2.65 26-3.98 6.88-1.34 18.35-4.03 25.5-6 7.15-1.96 19.08-5.83 26.5-8.6 7.42-2.77 20.7-8.59 29.5-12.93 8.8-4.35 22.17-11.85 29.7-16.67 7.54-4.82 19.24-13.02 26-18.24 6.87-5.29 19.82-17 29.32-26.5 9.65-9.65 21.13-22.36 26.5-29.35 5.22-6.78 9.82-12.97 10.23-13.75 0.6-1.14-0.1-1.37-3.5-1.19-2.34 0.13-14.26 0.35-26.5 0.5z"/>
	<path id="Path 0" fill-rule="evenodd" fill="#000000" d="m312.66 150c2.39 0 6.25 0.83 8.59 1.84 2.34 1.01 5.65 3.59 7.35 5.75 1.71 2.15 23.94 32.93 49.41 68.41 25.47 35.48 46.8 65.73 47.4 67.24 0.94 2.37 0.77 3.06-1.2 5-1.35 1.33-4.04 2.48-6.5 2.79-2.32 0.28-6.23 0.21-8.71-0.18-2.48-0.38-5.63-1.56-7-2.61-1.38-1.06-7.9-9.62-26.5-36.16l-125.5-0.08-12.25 17.65c-8.88 12.78-13.21 18.16-15.75 19.53-2.4 1.29-5.54 1.88-10 1.89-4.82 0-7.15-0.49-9-1.88-1.38-1.04-2.63-2.97-2.79-4.29-0.21-1.81 11.86-19.37 48.72-70.9 46.78-65.39 49.24-68.62 54.19-71.25 3.37-1.78 6.72-2.75 9.54-2.75zm-51.41 96.96c-0.17 0.71 16.22 1.04 51.25 1.04 28.32 0 51.66-0.34 51.86-0.75 0.2-0.41-10.94-17.04-24.75-36.94-13.81-19.91-25.58-36.64-26.15-37.18-0.71-0.67-9.26 10.92-26.5 35.91-14 20.29-25.57 37.35-25.71 37.92zm448.5-96.92c2.89-0.02 6.6 0.64 8.25 1.46 1.65 0.83 3.68 2.51 4.51 3.75 1.26 1.88 1.5 7.25 1.5 33-0.01 16.91 0.1 30.76 0.24 30.77 0.14 0.01 25.9-14.66 57.25-32.6 31.35-17.94 59.25-33.47 62-34.52 2.75-1.04 7.25-1.9 10-1.9 3.24 0.01 6.14 0.71 8.25 2 1.79 1.1 3.24 2.79 3.23 3.75-0.01 0.96-0.87 2.65-1.9 3.75-1.04 1.1-26.43 15.95-56.44 33-47.51 27-54.33 31.17-52.84 32.28 0.93 0.71 26.45 15.29 56.7 32.41 30.25 17.11 56.26 32.29 57.8 33.71 1.58 1.47 2.66 3.42 2.5 4.5-0.17 1.04-1.43 2.75-2.8 3.79-1.91 1.44-4.16 1.89-9.5 1.88-5.71-0.02-8.11-0.57-13-2.97-3.3-1.62-31.88-17.53-121-67.75l-0.5 32.8c-0.5 32.48-0.52 32.82-2.78 35.07-1.92 1.92-3.56 2.34-10.5 2.64-7.64 0.34-8.45 0.18-14.72-4.86l-0.02-69.75c-0.01-54.79 0.26-70.1 1.25-71.39 0.7-0.91 2.62-2.35 4.27-3.21 1.65-0.86 5.36-1.59 8.25-1.61zm299.25 0.09c14.53-0.09 21.18 0.34 31 1.98 6.87 1.16 16.33 3.19 21 4.53 4.67 1.33 13 4.64 18.5 7.35 5.5 2.71 13.04 7.42 16.75 10.47 3.71 3.05 8.62 7.9 10.9 10.79 2.28 2.89 5.67 8.4 7.52 12.25 1.85 3.85 4.02 10.6 4.81 15 0.8 4.4 1.45 10.25 1.45 13 0 2.75-0.64 8.6-1.43 13-0.89 5.03-2.92 11.06-5.46 16.25-2.76 5.64-6.17 10.51-10.79 15.38-3.71 3.93-9.45 8.97-12.75 11.2-3.3 2.23-9.6 5.74-14 7.79-4.4 2.06-12.05 4.92-17 6.35-4.95 1.43-13.28 3.35-18.5 4.26-6.86 1.2-15.48 1.66-31 1.65-15.91 0-23.97-0.45-31-1.71-5.23-0.94-13.55-2.86-18.5-4.26-4.95-1.4-13.5-4.77-19-7.48-5.5-2.71-12.92-7.31-16.5-10.23-3.58-2.91-8.52-7.81-11-10.87-2.48-3.06-5.79-8.21-7.38-11.45-1.58-3.23-3.72-9.25-4.76-13.38-1.13-4.5-1.87-10.9-1.85-16 0.01-4.67 0.7-11.65 1.52-15.5 0.83-3.85 3.18-10.34 5.24-14.43 2.23-4.44 6.35-10.24 10.23-14.4 3.58-3.83 9.2-8.79 12.5-11.01 3.3-2.23 9.6-5.73 14-7.79 4.4-2.06 12.05-4.89 17-6.3 4.95-1.4 13.73-3.4 19.5-4.44 7.58-1.37 15.65-1.92 29-2zm-28.25 18.29c-3.71 0.87-10.01 2.84-14 4.37-3.99 1.53-9.92 4.57-13.17 6.75-3.26 2.18-7.99 6.27-10.5 9.1-2.52 2.83-5.79 7.55-7.26 10.5-1.47 2.95-3.39 8.06-4.25 11.36-0.91 3.44-1.58 10.06-1.58 15.5 0 5.24 0.67 12.08 1.5 15.25 0.83 3.16 2.92 8.56 4.65 12 1.9 3.78 5.65 8.72 9.5 12.5 4.64 4.56 8.86 7.47 15.61 10.76 5.09 2.48 12.85 5.49 17.25 6.69 7.15 1.95 10.5 2.19 31.5 2.21 22.21 0.02 24.02-0.12 33-2.56 5.22-1.43 12.42-4.05 16-5.83 3.58-1.78 8.93-5.1 11.89-7.38 2.97-2.28 7.45-7.06 9.97-10.64 2.52-3.57 5.7-9.65 7.07-13.5 2.12-5.99 2.49-8.8 2.53-19.5 0.03-10.41-0.33-13.59-2.19-19-1.23-3.57-3.64-8.75-5.35-11.5-1.71-2.75-4.76-6.71-6.77-8.8-2.01-2.08-6.35-5.56-9.65-7.71-3.3-2.16-9.71-5.29-14.25-6.96-4.54-1.67-12.19-3.67-17-4.45-4.81-0.78-13.02-1.62-18.25-1.86-5.23-0.24-14-0.09-19.5 0.34-5.5 0.43-13.04 1.49-16.75 2.36zm203-18.38c3.17-0.02 6.73 0.69 9 1.82 2.06 1.02 4.09 2.59 4.5 3.5 0.41 0.9 0.76 21.55 0.76 45.89 0.02 36.24 0.3 45.43 1.55 50.75 0.85 3.58 2.59 8.3 3.87 10.5 1.29 2.2 4.42 5.91 6.95 8.25 2.54 2.34 7.32 5.6 10.62 7.25 3.3 1.65 9.71 4.01 14.25 5.25 7.49 2.04 10.41 2.25 31.75 2.21 21.09-0.04 24.32-0.27 31.5-2.25 4.4-1.22 10.88-3.68 14.39-5.46 3.84-1.95 8.45-5.45 11.54-8.75 3.1-3.3 6.13-7.89 10.05-17.5l0.27-46.5c0.14-25.57 0.49-47.51 0.76-48.75 0.3-1.36 2.07-3.04 4.49-4.25 2.4-1.2 6-2 9-2 2.75 0 6.46 0.74 8.25 1.65 1.79 0.91 3.8 2.38 4.47 3.25 0.91 1.2 1.22 12.89 1.23 47.1 0.01 34.56-0.31 47.06-1.35 52-0.74 3.58-2.48 8.75-3.86 11.5-1.38 2.75-4.27 7.25-6.42 10-2.15 2.75-7.04 7.1-10.87 9.66-3.82 2.56-9.87 5.82-13.45 7.24-3.58 1.42-10.1 3.49-14.5 4.6-4.4 1.11-11.83 2.58-16.5 3.26-4.81 0.7-17.84 1.22-30 1.19-12.13-0.03-24.99-0.6-29.5-1.31-4.4-0.7-12.28-2.38-17.5-3.74-5.22-1.36-13.1-4.23-17.5-6.38-4.4-2.15-10.25-5.79-13-8.1-2.75-2.31-6.28-5.83-7.85-7.81-1.57-1.99-3.99-5.86-5.37-8.61-1.39-2.75-3.14-7.92-3.88-11.5-1.04-4.94-1.36-17.44-1.35-52 0.01-34.21 0.32-45.89 1.23-47.09 0.67-0.88 2.57-2.32 4.22-3.21 1.65-0.89 5.36-1.64 8.25-1.66zm806.75 176.47c13.25 0.24 22.48 0.95 30.5 2.35 6.33 1.11 15.33 3.21 20 4.67 4.67 1.45 11.65 4.14 15.5 5.96 4.64 2.19 7.42 4.18 8.25 5.91 0.87 1.82 0.95 3.2 0.25 4.6-0.55 1.1-2.35 2.68-4 3.5-1.65 0.83-4.57 1.5-6.5 1.5-1.93 0-7.44-1.51-12.25-3.36-4.81-1.85-11.22-4.06-14.25-4.92-3.03-0.85-7.97-2.05-11-2.67-3.03-0.61-11.58-1.51-19-1.99-7.91-0.51-18.27-0.49-25 0.05-6.33 0.5-14.42 1.64-18 2.54-3.58 0.89-8.75 2.6-11.5 3.8-2.75 1.19-6.97 3.95-9.37 6.11-2.4 2.17-4.94 5.07-5.63 6.44-0.69 1.38-1.57 3.85-1.94 5.5-0.38 1.65-0.21 4.91 0.38 7.25 0.62 2.48 2.41 5.57 4.31 7.42 1.79 1.75 5.5 4.2 8.25 5.45 2.75 1.26 7.7 2.99 11 3.85 3.3 0.87 19.5 3.38 36 5.59 16.5 2.21 34.28 4.89 39.5 5.95 5.22 1.06 12.65 3.01 16.5 4.33 3.85 1.31 9.03 3.33 11.5 4.48 2.47 1.15 6.7 4.02 9.39 6.39 2.68 2.36 5.8 6.09 6.93 8.29 1.42 2.79 2.05 5.97 2.07 10.5 0.02 4.61-0.6 7.81-2.11 11-1.17 2.48-4.86 7.09-8.2 10.25-3.93 3.72-8.82 7.03-13.83 9.38-4.26 1.99-11.8 4.65-16.75 5.91-4.95 1.25-12.83 2.88-17.5 3.62-5.25 0.83-17.1 1.34-31 1.34-13 0-26.72-0.56-32.5-1.33-5.5-0.73-15.4-2.46-22-3.85-6.6-1.39-15.15-3.65-19-5.03-3.85-1.38-8.68-3.47-10.74-4.65-2.06-1.18-4.19-3.15-4.75-4.39-0.72-1.6-0.65-2.99 0.24-4.79 0.69-1.39 2.83-3.26 4.75-4.15 2.83-1.31 4.36-1.42 8-0.58 2.47 0.57 9 2.64 14.5 4.59 5.5 1.96 13.37 4.23 17.5 5.06 4.12 0.84 11.33 1.99 16 2.57 4.67 0.58 17.28 1.06 28 1.06 12.9 0.01 22.46-0.5 28.25-1.5 4.81-0.83 11.11-2.39 14-3.47 2.89-1.08 7.28-3.32 9.75-4.98 2.47-1.66 5.51-4.72 6.74-6.79 1.46-2.44 2.24-5.36 2.22-8.27-0.01-2.93-0.8-5.69-2.24-7.9-1.22-1.87-4.25-4.55-6.72-5.95-2.47-1.41-6.53-3.16-9-3.9-2.47-0.74-7.42-1.97-11-2.73-3.58-0.77-18.88-2.97-34-4.9-15.13-1.93-31.1-4.25-35.5-5.14-4.4-0.9-12.05-2.95-17-4.57-4.95-1.62-11.92-4.85-15.48-7.18-3.56-2.32-7.95-6.14-9.75-8.48-1.8-2.34-3.77-6.16-4.38-8.5-0.61-2.34-0.92-6.95-0.68-10.25q0.43-6 3-10.5c1.42-2.47 4.99-6.79 7.93-9.6 2.95-2.8 8.51-6.68 12.36-8.63 3.85-1.94 10.6-4.67 15-6.05 4.4-1.39 12.5-3.24 18-4.11 5.5-0.88 11.58-1.78 13.5-2.01 1.92-0.23 12.05-0.27 22.5-0.09zm442-0.38c6.6-0.08 16.72 0.33 22.5 0.91 5.78 0.57 15.22 2.1 21 3.39 5.78 1.29 14.1 3.74 18.5 5.44 4.4 1.7 11.6 5.21 16 7.79 4.73 2.78 11.09 7.79 15.57 12.27 5.76 5.75 8.58 9.61 11.79 16.07 2.75 5.53 4.72 11.29 5.64 16.5 0.79 4.4 1.43 10.25 1.43 13 0 2.75-0.64 8.6-1.43 13-0.89 5.03-2.92 11.06-5.46 16.25-2.76 5.64-6.17 10.51-10.79 15.38-3.71 3.93-9.45 8.97-12.75 11.2-3.3 2.23-9.6 5.74-14 7.79-4.4 2.06-12.05 4.91-17 6.34-4.95 1.43-14.29 3.48-20.75 4.57-8.46 1.42-16.44 1.97-28.5 1.96-12.11 0-20.07-0.56-28.75-2.01-6.6-1.11-16.05-3.16-21-4.57-4.95-1.4-13.5-4.77-19-7.48-5.5-2.71-12.93-7.31-16.5-10.23-3.57-2.91-8.53-7.81-11-10.87-2.47-3.06-5.79-8.21-7.38-11.45-1.58-3.23-3.72-9.25-4.76-13.38-1.13-4.5-1.87-10.9-1.85-16 0.01-4.67 0.7-11.65 1.52-15.5 0.83-3.85 3.18-10.34 5.24-14.43 2.23-4.44 6.35-10.24 10.23-14.4 3.57-3.83 8.97-8.64 12-10.68 3.03-2.04 8.2-5.07 11.5-6.73 3.3-1.65 9.15-4.14 13-5.53 3.85-1.39 11.5-3.48 17-4.66 5.5-1.17 13.6-2.51 18-2.97 4.4-0.46 13.4-0.9 20-0.97zm-27.75 18.29c-3.71 0.87-10.01 2.84-14 4.37-3.99 1.53-9.92 4.57-13.17 6.75-3.26 2.18-7.99 6.27-10.5 9.1-2.52 2.83-5.79 7.55-7.26 10.5-1.47 2.95-3.39 8.06-4.25 11.36-0.91 3.44-1.58 10.06-1.58 15.5 0 5.24 0.67 12.08 1.5 15.25 0.83 3.16 2.92 8.56 4.65 12 1.9 3.78 5.65 8.72 9.5 12.5 4.64 4.56 8.86 7.47 15.61 10.76 5.09 2.48 12.85 5.49 17.25 6.69 7.15 1.95 10.5 2.19 31.5 2.21 22.21 0.02 24.02-0.12 33-2.56 5.22-1.43 12.43-4.05 16-5.83 3.57-1.78 8.93-5.1 11.89-7.38 2.97-2.28 7.45-7.06 9.97-10.64 2.52-3.57 5.7-9.65 7.07-13.5 2.12-5.99 2.49-8.8 2.53-19.5 0.03-10.41-0.33-13.59-2.19-19-1.23-3.57-3.64-8.75-5.35-11.5-1.71-2.75-4.76-6.71-6.77-8.8-2.01-2.08-6.35-5.56-9.65-7.71-3.3-2.16-9.71-5.29-14.25-6.96-4.54-1.67-12.19-3.67-17-4.45-4.81-0.78-13.03-1.62-18.25-1.86-5.22-0.24-14-0.09-19.5 0.34-5.5 0.43-13.04 1.49-16.75 2.36zm-224.75-16.03c45.6 0.27 56.93 0.62 63.5 1.92 4.4 0.87 11.37 2.78 15.5 4.23 4.12 1.46 9.53 3.82 12 5.25 2.47 1.42 6.69 4.64 9.36 7.15 2.68 2.51 5.99 6.81 7.37 9.56 1.38 2.75 2.9 7.48 3.38 10.5 0.56 3.5 0.49 7.68-0.2 11.5-0.59 3.3-2.28 8.19-3.74 10.87-1.47 2.68-4.7 6.77-7.17 9.09-2.47 2.32-7.88 5.92-12 8.01-4.13 2.08-11.55 4.82-16.5 6.08-4.95 1.26-13.72 2.78-19.5 3.38-5.78 0.6-27.94 1.08-88 1.07l0.01 26.75c0 22.19-0.25 27.13-1.5 29-0.83 1.24-3.2 2.94-5.26 3.77-2.06 0.84-5.44 1.52-7.5 1.5-2.06-0.01-4.99-0.5-6.5-1.09-1.51-0.58-3.77-2.05-7.3-5.43l-0.01-69c0-64.9 0.1-69.1 1.78-70.69 0.98-0.92 2.9-2.15 4.28-2.72 1.66-0.69 21.09-0.93 58-0.7zm-36 73.61c82.95-0.57 87.07-0.76 93.5-2.59 3.85-1.1 9.47-3.37 12.5-5.06 3.03-1.68 6.96-4.92 8.75-7.2 1.79-2.28 3.75-6.06 4.36-8.4 0.61-2.34 0.88-6.27 0.61-8.75-0.28-2.47-1.39-6.3-2.47-8.5-1.08-2.2-3.95-5.7-6.36-7.79-2.41-2.08-6.86-4.71-9.89-5.84-3.03-1.13-8.43-2.74-12-3.58-5.04-1.18-15.73-1.63-47.64-2.01l-41.14-0.49zm524-73.96c89.91-0.04 96.74 0.08 100 1.71 2.8 1.4 3.55 2.39 3.75 5 0.18 2.32-0.39 3.8-2 5.22-1.24 1.08-3.6 2.21-5.25 2.51-1.65 0.3-20.89 0.53-82.5 0.52v64c0 35.2-0.39 64.78-0.87 65.75-0.47 0.96-2.72 2.53-5 3.5-2.27 0.96-5.93 1.75-8.13 1.75-2.2 0-5.24-0.54-6.75-1.2-1.52-0.65-3.78-2.11-7.3-5.3l0.05-128.5-40.75-0.01c-36.82 0-41.08-0.17-44.18-1.75-1.88-0.96-3.86-2.42-4.38-3.24-0.53-0.83-0.68-2.74-0.33-4.25 0.42-1.82 1.74-3.25 3.89-4.22 2.77-1.24 17.33-1.46 99.75-1.49zm-2603-175.66c45.59 0.28 56.92 0.62 63.5 1.92 4.4 0.87 11.37 2.78 15.5 4.24 4.12 1.46 9.52 3.82 12 5.24 2.47 1.43 6.69 4.65 9.36 7.16 2.68 2.5 5.99 6.81 7.37 9.56 1.37 2.75 2.89 7.47 3.38 10.5 0.55 3.49 0.48 7.68-0.2 11.5-0.59 3.3-2.28 8.19-3.75 10.86-1.46 2.68-4.69 6.77-7.16 9.09-2.48 2.32-7.88 5.93-12 8.01-4.13 2.09-11.55 4.82-16.5 6.09-4.95 1.26-13.73 2.78-19.5 3.37-5.78 0.6-27.94 1.09-88 1.08v54l-2.42 2.75c-2.2 2.51-3.13 2.78-10.75 3.11-7.76 0.33-8.56 0.18-14.83-4.86l-0.04-69.25c-0.03-65.17 0.08-69.35 1.75-70.94 0.98-0.93 2.91-2.15 4.29-2.73 1.66-0.69 21.09-0.92 58-0.7zm-36 73.62c82.95-0.57 87.07-0.76 93.5-2.6 3.85-1.09 9.47-3.37 12.5-5.05 3.02-1.68 6.96-4.93 8.75-7.21 1.78-2.28 3.75-6.06 4.35-8.39 0.61-2.34 0.89-6.28 0.61-8.75-0.27-2.48-1.38-6.3-2.47-8.5-1.08-2.2-3.94-5.71-6.35-7.79-2.42-2.08-6.87-4.71-9.89-5.84-3.03-1.13-8.43-2.74-12-3.58-5.05-1.18-15.73-1.63-47.65-2.02l-41.14-0.49zm496.25-73.94c29.71-0.03 53.68 0.38 59.5 1.03 5.37 0.6 13.8 2.11 18.75 3.36 4.95 1.24 11.93 3.63 15.5 5.3 3.58 1.68 9.13 5.45 12.33 8.4 3.21 2.94 6.68 7.15 7.73 9.35 1.04 2.2 2.36 6.48 2.93 9.5 0.72 3.81 0.72 7.19-0.01 11-0.57 3.03-2.04 7.47-3.26 9.89-1.22 2.41-4.47 6.41-7.22 8.9-2.75 2.48-8.15 6.01-12 7.83-3.85 1.83-10.82 4.27-15.5 5.43-4.67 1.16-9.85 2.43-11.5 2.82-2.94 0.69-2.87 0.77 3.5 3.72 3.58 1.65 8.25 4.34 10.39 5.96 2.13 1.62 12.26 12.54 22.5 24.26 10.24 11.73 19 22.08 19.47 23 0.48 0.93 0.62 2.82 0.32 4.19-0.3 1.38-1.7 3.06-3.11 3.75-1.41 0.69-5.6 1.25-9.32 1.25-5.25-0.01-7.55-0.51-10.36-2.25-1.99-1.24-12.69-12.6-23.76-25.25-11.08-12.65-22.28-24.67-24.88-26.72-2.61-2.04-7.45-4.66-10.75-5.82-3.9-1.37-10.37-2.42-18.5-3.01-6.87-0.49-21.61-0.9-53-0.95v58l-2.41 2.75c-2.21 2.51-3.13 2.78-10.75 3.11-7.77 0.34-8.56 0.19-14.84-4.86l-0.03-69.25c-0.03-65.16 0.07-69.35 1.75-70.94 0.98-0.92 2.91-2.13 4.28-2.68 1.55-0.62 21.54-1.03 52.25-1.07zm-30.25 71.94c74.8-0.7 83.9-1.09 90-2.43 4.13-0.9 10.77-3.2 14.75-5.11 5.37-2.56 8.04-4.56 10.3-7.71 1.68-2.34 3.52-6.05 4.1-8.25 0.59-2.2 0.79-5.91 0.46-8.25-0.34-2.34-1.51-6.05-2.61-8.25-1.1-2.2-3.46-5.1-5.25-6.43-1.78-1.34-5.72-3.56-8.75-4.94-3.02-1.37-8.87-3.25-13-4.17-6.11-1.37-15.1-1.77-48.64-2.18l-41.14-0.49zm984.25-71.94c29.71-0.04 53.68 0.37 59.5 1.02 5.36 0.6 13.8 2.11 18.75 3.36 4.95 1.25 11.92 3.64 15.5 5.31 3.57 1.67 9.12 5.45 12.33 8.39 3.21 2.95 6.68 7.16 7.72 9.36 1.04 2.2 2.37 6.47 2.94 9.5 0.72 3.81 0.72 7.18-0.01 11-0.57 3.02-2.04 7.47-3.26 9.88-1.22 2.41-4.47 6.42-7.22 8.9-2.75 2.49-8.15 6.01-12 7.84-3.85 1.82-10.83 4.27-15.5 5.43-4.68 1.15-9.85 2.42-11.5 2.81-2.94 0.7-2.87 0.77 3.5 3.72 3.57 1.66 8.25 4.34 10.38 5.96 2.14 1.63 12.27 12.55 22.5 24.27 10.24 11.72 19.01 22.07 19.48 23 0.47 0.93 0.62 2.81 0.32 4.19-0.3 1.37-1.7 3.06-3.11 3.75-1.41 0.68-5.61 1.24-9.32 1.24-5.25 0-7.56-0.5-10.37-2.25-1.99-1.23-12.68-12.59-23.76-25.24-11.07-12.65-22.27-24.68-24.88-26.72-2.61-2.04-7.44-4.66-10.74-5.82-3.9-1.38-10.37-2.43-18.5-3.01-6.88-0.49-21.61-0.91-53-0.95v58l-2.41 2.75c-2.21 2.51-3.13 2.78-10.75 3.11-7.77 0.34-8.56 0.18-14.84-4.86l-0.03-69.25c-0.03-65.17 0.07-69.35 1.75-70.94 0.98-0.93 2.9-2.14 4.28-2.69 1.54-0.61 21.53-1.02 52.25-1.06zm-30.25 71.94c74.79-0.71 83.9-1.09 90-2.43 4.12-0.91 10.76-3.21 14.75-5.11 5.37-2.57 8.04-4.57 10.3-7.71 1.67-2.34 3.52-6.05 4.1-8.25 0.58-2.2 0.79-5.92 0.45-8.25-0.33-2.34-1.5-6.05-2.6-8.25-1.1-2.2-3.46-5.1-5.25-6.44-1.79-1.34-5.73-3.56-8.75-4.93-3.03-1.37-8.88-3.25-13-4.18-6.11-1.37-15.1-1.77-48.64-2.17l-41.14-0.5z"/>
	<g id="Arrow color">
		<path id="Path 0" fill-rule="evenodd" fill="#007fa8" d="m1997.5 45.09l6.75-0.05c4.45-0.03 8 0.56 10.41 1.71 2.01 0.96 4.93 3.21 6.5 5 2.44 2.8 2.84 4.09 2.84 9.25 0 5.44-0.67 7.33-7.12 20.25-3.92 7.84-19.51 37.88-34.66 66.75-15.14 28.87-30.87 58.8-34.96 66.5-4.09 7.7-13.13 24.74-20.1 37.87-6.96 13.13-14.05 25.5-15.74 27.5-1.7 2-5.3 5.07-8 6.84-2.71 1.76-7.62 4.14-10.92 5.28-3.3 1.14-11.17 3.04-17.5 4.23-8.25 1.54-15.6 2.16-26 2.2-12.68 0.04-15.19-0.23-20-2.15-3.03-1.21-7.48-3.9-9.9-5.98-2.42-2.09-7.14-7.84-10.49-12.79-3.36-4.95-9.93-12.88-14.6-17.63-4.92-4.98-10.62-9.69-13.51-11.14-2.75-1.38-7.03-3.04-9.5-3.68-3.78-0.98-6.51-0.82-17 0.98-6.88 1.19-27.58 5.95-46 10.58-18.42 4.63-35.08 8.42-37 8.41-1.92 0-5.52-1.02-7.99-2.26-2.47-1.24-5.52-3.83-6.78-5.76-1.49-2.29-2.28-4.97-2.26-7.75 0.02-2.34 0.48-5.38 1.03-6.75 0.55-1.38 2.69-4.34 4.75-6.6 2.22-2.42 9.27-7.28 17.25-11.88 7.42-4.28 25.88-14.74 41-23.24 15.13-8.51 43.7-24.51 63.5-35.56 19.8-11.05 76.5-42.6 126-70.11zm-99 95.38c-13.2 7.07-30.97 16.66-39.5 21.32-8.53 4.65-18.42 10.16-22 12.23-3.58 2.07-8.57 5.95-11.11 8.62-2.66 2.81-5.08 6.55-5.74 8.86-0.63 2.2-1.14 4.79-1.14 5.75-0.01 0.96 3.47 5.01 7.72 9 4.25 3.99 13.36 12.69 20.25 19.33 11.46 11.06 12.99 12.19 18.02 13.39 3.37 0.8 7.73 1.06 11.25 0.67 3.16-0.35 7.89-1.53 10.5-2.62 2.61-1.09 5.72-3 6.91-4.25 1.19-1.25 6.32-10.14 11.4-19.77 5.08-9.62 16.15-31.45 24.61-48.5 10.83-21.86 15.37-32.03 15.39-34.5 0.02-2.1-0.66-4.1-1.7-5-0.95-0.82-3.56-1.63-5.79-1.78-2.58-0.18-6.09 0.58-9.57 2.06-3.03 1.29-16.3 8.12-29.5 15.19zm-256 204.02c6.27 0.22 13.37 1.11 16.5 2.06 3.03 0.92 7.19 2.52 9.25 3.56 2.19 1.1 6.11 4.91 9.41 9.14 3.11 3.99 9.98 11.53 15.25 16.76 5.27 5.24 12.74 11.76 16.59 14.49 3.85 2.74 9.47 5.98 12.5 7.21 3.53 1.44 7.65 2.25 11.5 2.27 3.3 0.02 8.7-0.44 12-1.03 3.3-0.58 16.58-3.7 29.5-6.94 12.92-3.23 27.55-6.64 32.5-7.56 5.43-1.01 11.98-1.51 16.5-1.26 5.3 0.28 8.53 1.02 11 2.51 1.92 1.16 4.06 3.28 4.75 4.7 0.69 1.43 1.25 4.18 1.25 6.1 0 1.93-0.63 4.74-1.41 6.25-0.78 1.51-2.69 3.92-4.25 5.35-1.56 1.43-7.79 5.54-13.84 9.13-6.05 3.58-17.3 10.11-25 14.51-7.7 4.4-21.88 12.27-31.5 17.5-9.63 5.23-21.78 11.65-27 14.27-5.22 2.62-12.31 5.83-15.75 7.13-3.44 1.3-8.28 2.36-10.75 2.36-2.48 0-5.84-0.78-7.48-1.75-1.64-0.96-3.87-3.32-4.95-5.25-1.08-1.92-3.27-8.9-4.86-15.5-1.59-6.6-3.81-13.8-4.92-16-1.11-2.2-4.02-6.02-6.46-8.5-2.45-2.47-7.12-6.28-10.39-8.47-3.27-2.18-8.75-4.99-12.19-6.25-3.44-1.25-8.39-2.27-11-2.26-2.61 0.01-6.55 0.83-8.75 1.82-2.2 0.99-5.45 3.57-7.22 5.73-1.77 2.16-3.73 5.73-4.36 7.93-0.93 3.25-0.84 4.94 0.46 9 0.88 2.75 5.23 11.3 9.67 19 4.44 7.7 8.72 16.25 9.52 19 0.8 2.75 1.45 8.38 1.44 12.5 0 4.13-0.71 10.2-1.57 13.5-0.86 3.3-3 8.69-4.75 11.97-1.76 3.29-5.47 8.24-8.27 11-2.79 2.77-9.76 7.69-15.5 10.95-5.73 3.25-22.57 12.75-37.42 21.09-14.85 8.35-35.78 19.94-46.5 25.76-10.72 5.81-24.45 12.95-30.5 15.86-9.15 4.4-12.2 5.38-25.27 6.37l-4.07-4c-4.01-3.94-4.07-4.11-4.12-11.25-0.03-6.41 0.43-8.26 4-16 2.23-4.81 11.57-22.89 20.75-40.18 9.19-17.29 18.06-32.91 19.71-34.71 1.78-1.95 4.02-3.31 5.5-3.35 1.38-0.04 3.31 0.73 4.3 1.71 1.38 1.37 1.7 2.93 1.4 6.78-0.22 2.75-1.88 9.05-3.69 14-1.82 5-3.53 11.89-3.83 15.5-0.5 6.05-0.35 6.69 2.14 9.25 2.27 2.32 3.26 2.67 6.43 2.2 2.06-0.3 6.67-1.49 10.25-2.65 3.58-1.16 9.88-3.64 14-5.52 4.13-1.88 11.55-5.81 16.5-8.74 4.95-2.92 11.87-7.5 15.37-10.18 3.51-2.67 7.19-6.21 8.18-7.86 0.99-1.65 3-6.6 4.47-11 1.95-5.85 2.66-10.01 2.65-15.5-0.01-5.28-0.67-9.28-2.25-13.5-1.22-3.3-3.86-8.7-5.85-12-1.99-3.3-6.51-9.82-10.04-14.5-3.54-4.67-7.55-10.97-8.92-14-1.78-3.93-2.61-7.78-2.9-13.5-0.29-5.5 0.12-10.03 1.29-14.5 0.94-3.57 3.18-9.42 4.99-13 1.81-3.57 5.47-9.39 8.15-12.92 2.67-3.53 7.11-8.31 9.86-10.63 2.75-2.32 7.25-5.63 10-7.35 2.75-1.72 7.92-4.09 11.5-5.26 3.58-1.16 8.53-2.49 11-2.93 2.47-0.45 9.45-0.64 15.5-0.42z"/>
		<path id="Path 1" fill="#000000" d="m1742 279.13c-3.03 0.53-8.2 2.26-11.5 3.85-3.3 1.59-8.14 4.94-10.75 7.45-2.61 2.51-5.88 6.37-7.25 8.57-1.38 2.2-3.45 6.81-4.6 10.25-1.68 4.98-2.03 8.08-1.75 15.29 0.31 8.01 0.77 9.9 4.02 16.5 2.49 5.07 5.45 9.14 9.25 12.71 3.07 2.89 8.62 6.7 12.33 8.46 5.69 2.71 8.17 3.28 15.75 3.61 7.23 0.31 10.23-0.03 15.25-1.72 3.44-1.15 8.16-3.31 10.5-4.79 2.34-1.48 6.21-4.74 8.6-7.25 2.39-2.51 5.63-7.26 7.2-10.56 1.58-3.3 3.37-8.93 3.98-12.5 0.81-4.73 0.81-8.27 0.01-13-0.6-3.57-2.43-9.31-4.07-12.75-1.64-3.46-5.31-8.64-8.22-11.59-2.89-2.94-7.5-6.49-10.25-7.89-2.75-1.41-6.8-3.02-9-3.58-2.2-0.57-6.25-1.25-9-1.52-2.75-0.27-7.47-0.06-10.5 0.46z"/>
	</g>
</svg>