<svg version="1.2" xmlns="http://www.w3.org/2000/svg" viewBox="0 0 646 646" width="646" height="646">
	<path id="Path 0" fill="#93c9da" d="m287.5 1.03c-4.4 0.41-12.39 1.47-17.75 2.36-5.36 0.89-14.59 2.77-20.5 4.18-5.91 1.42-16.6 4.39-23.75 6.61-7.15 2.22-17.28 5.75-22.5 7.83-5.22 2.09-13.78 5.78-19 8.21-5.22 2.43-14.45 7.25-20.5 10.72-6.05 3.47-16.63 10.15-23.5 14.85-6.88 4.7-15.88 11.25-20 14.56-4.13 3.31-15.19 13.7-24.58 23.09-9.4 9.38-20.44 21.11-24.53 26.06-4.1 4.95-11.79 15.53-17.1 23.5-5.31 7.97-13.27 21.47-17.68 30-4.41 8.53-10 20.22-12.43 26-2.42 5.78-6.3 16.35-8.63 23.5-2.32 7.15-5.34 17.72-6.7 23.5-1.37 5.78-3.62 16.8-5.01 24.5-2.24 12.41-2.59 17.57-3.04 45.5-0.42 25.43-0.2 34.1 1.12 45 0.89 7.43 3.01 20.25 4.69 28.5 1.69 8.25 5.09 21.52 7.56 29.5 2.47 7.98 6.51 19.45 8.98 25.5 2.47 6.05 8.19 18.2 12.73 27 4.54 8.8 9.95 18.7 12.02 22l3.77 6c6.24-11.63 9.31-16.8 10.85-19 1.54-2.2 4.3-5.6 6.14-7.55 1.84-1.95 4.92-4.77 6.84-6.26l3.5-2.71c-11.99-24.4-17.48-37.11-19.93-43.98-2.45-6.88-5.63-16.55-7.06-21.5-1.43-4.95-3.67-14.4-4.97-21-1.31-6.6-2.95-16.5-3.65-22-0.7-5.51-1.26-20.11-1.25-32.5 0.01-12.38 0.58-27 1.27-32.5 0.68-5.5 2.34-15.4 3.68-22 1.33-6.6 3.82-16.95 5.54-23 1.71-6.05 5.02-15.95 7.36-22 2.34-6.05 6.25-15.28 8.69-20.5 2.44-5.22 7.23-14.34 10.63-20.25 3.41-5.91 9.96-16.04 14.56-22.5 4.61-6.46 11.88-15.8 16.17-20.75 4.29-4.95 12.11-13.2 17.38-18.33 5.27-5.13 14.08-12.97 19.58-17.41 5.5-4.44 14.5-11.08 20-14.76 5.5-3.67 14.95-9.44 21-12.82 6.05-3.38 16.63-8.57 23.5-11.52 6.88-2.95 17.45-7.04 23.5-9.08 6.05-2.04 14.15-4.55 18-5.56 3.85-1.02 13.3-3.01 21-4.41 7.7-1.41 20.07-3.07 27.5-3.7 8.02-0.67 20.2-0.86 30-0.47 9.07 0.36 20.32 1.11 25 1.66 4.68 0.56 13.45 1.92 19.5 3.04 6.05 1.12 15.05 3.15 20 4.52 4.95 1.36 14.18 4.29 20.5 6.51 6.32 2.22 17.35 6.72 24.5 10.01 7.15 3.3 13.45 6.06 14 6.16 0.55 0.09 10.35-5.02 21.78-11.34 11.43-6.33 20.77-11.73 20.76-12-0.01-0.28-3.96-2.83-8.78-5.68-4.82-2.85-14.61-8.08-21.76-11.63-7.15-3.54-18.18-8.49-24.5-10.99-6.32-2.49-16.9-6.18-23.5-8.19-6.6-2-15.6-4.51-20-5.56-4.4-1.06-12.95-2.83-19-3.94-6.05-1.12-16.85-2.47-24-3.02-7.15-0.54-23.57-0.92-36.5-0.84-12.93 0.07-27.1 0.47-31.5 0.88zm294.24 165.72l-11.43 21.75c3.55 6.2 6.87 13.18 9.68 19.5 2.81 6.32 6.64 15.78 8.5 21 1.86 5.22 4.57 13.78 6.03 19 1.45 5.22 3.7 14.68 4.98 21 1.29 6.32 2.81 16 3.39 21.5 0.57 5.5 1.33 15.18 1.68 21.5 0.35 6.32 0.11 19.38-0.53 29-0.64 9.63-2.02 22.45-3.07 28.5-1.05 6.05-3.25 16.18-4.89 22.5-1.64 6.32-4.85 16.9-7.12 23.5-2.28 6.6-6.62 17.4-9.63 24-3.02 6.6-7.79 16.05-10.59 21-2.81 4.95-8.11 13.5-11.78 19-3.67 5.5-9.53 13.6-13.02 18-3.49 4.4-10.69 12.73-16 18.5-5.3 5.77-15.58 15.45-22.85 21.5-7.26 6.05-18.02 14.29-23.9 18.31-5.88 4.02-14.96 9.75-20.19 12.73-5.23 2.97-14.9 7.86-21.5 10.84-6.6 2.99-17.4 7.31-24 9.6-6.6 2.29-18.07 5.71-25.5 7.6-7.43 1.89-18 4.1-23.5 4.9-5.5 0.81-16.3 1.94-24 2.52-9.59 0.72-20.14 0.73-33.5 0.04-10.73-0.55-24.23-1.71-30-2.58-5.77-0.87-16.35-3.11-23.5-4.97-7.15-1.86-18.18-5.16-24.5-7.35-6.32-2.18-15.55-5.75-20.5-7.92-4.95-2.17-11.93-5.41-15.5-7.2l-6.5-3.25c-9.3 5.1-18.3 10.14-26 14.49-7.7 4.35-14.37 8.21-14.82 8.57-0.46 0.37 0.44 1.61 2 2.76 1.55 1.15 8.89 5.51 16.32 9.7 7.43 4.18 19.12 10.05 26 13.04 6.87 3 19.25 7.7 27.5 10.47 8.25 2.76 19.95 6.22 26 7.69 6.05 1.46 14.6 3.31 19 4.1 4.4 0.78 13.4 2.1 20 2.92 7.92 0.99 21.01 1.49 38.5 1.49 17.32 0 30.66-0.51 38.5-1.48 6.6-0.81 15.82-2.19 20.5-3.06 4.68-0.88 12.32-2.49 17-3.59 4.68-1.1 16.15-4.5 25.5-7.55 9.35-3.06 22.4-7.91 29-10.79 6.6-2.88 18.3-8.74 26-13.04 7.7-4.29 17.37-10.07 21.5-12.84 4.12-2.76 11.55-8.02 16.5-11.67 4.95-3.65 13.73-10.92 19.5-16.15 5.77-5.22 16.08-15.31 22.9-22.41 6.82-7.11 16.49-18.41 21.5-25.12 5-6.71 12-16.84 15.54-22.5 3.54-5.67 9.48-16.15 13.2-23.3 3.71-7.15 8.97-18.18 11.68-24.5 2.71-6.32 6.6-16.68 8.64-23 2.03-6.32 5.24-17.8 7.12-25.5 1.89-7.7 4.44-20.3 5.67-28 2.02-12.55 2.25-17.56 2.25-48.5 0-28.42-0.32-36.53-1.81-46-1-6.32-3.15-17.57-4.78-25-1.63-7.43-4.95-19.8-7.37-27.5-2.43-7.7-6.72-19.4-9.54-26-2.81-6.6-8.39-18.3-12.39-26-4-7.7-9.05-17.04-11.23-20.75-2.17-3.71-4.23-6.75-4.58-6.75-0.34 0-5.77 9.79-12.06 21.75z"/>
	<path id="Dot vector" fill="#ffffff" d="m311 280.78c-3.03 0.99-7.53 2.96-10 4.38-2.48 1.42-6.9 5.23-9.84 8.46-2.94 3.24-6.42 8.24-7.75 11.13-1.33 2.89-2.95 8.29-3.6 12-0.92 5.23-0.92 8.22 0 13.25 0.66 3.57 2.48 9.2 4.04 12.5 1.56 3.3 4.87 8.25 7.33 11 2.65 2.94 7.34 6.52 11.41 8.69 4.14 2.22 9.71 4.2 13.91 4.96 5.49 0.98 8.51 1 14 0.08 3.85-0.65 9.47-2.42 12.5-3.94 3.02-1.51 7.97-5.06 11-7.87 3.02-2.82 6.91-7.78 8.63-11.02 1.72-3.25 3.7-8.38 4.39-11.4 0.79-3.44 1.04-8.5 0.68-13.5-0.47-6.39-1.3-9.46-4.14-15.25-2.08-4.22-5.65-9.34-8.56-12.25-2.88-2.88-8.07-6.52-12.25-8.58-6.42-3.18-8.33-3.63-16.75-4.01-7.34-0.33-10.75-0.02-15 1.37z"/>
	<path id="Arrow vector" fill-rule="evenodd" fill="#007fa8" d="m571.5 45.09l6.75-0.05c4.45-0.03 8 0.56 10.41 1.71 2.01 0.96 4.93 3.21 6.5 5 2.44 2.8 2.84 4.09 2.84 9.25 0 5.44-0.67 7.33-7.12 20.25-3.92 7.84-19.51 37.87-34.66 66.75-15.14 28.87-30.87 58.8-34.96 66.5-4.09 7.7-13.13 24.74-20.1 37.87-6.96 13.13-14.05 25.5-15.74 27.5-1.7 2-5.3 5.07-8 6.84-2.71 1.76-7.62 4.14-10.92 5.28-3.3 1.14-11.18 3.04-17.5 4.23-8.25 1.54-15.6 2.16-26 2.2-12.68 0.04-15.19-0.23-20-2.15-3.03-1.21-7.48-3.9-9.9-5.98-2.42-2.09-7.14-7.84-10.49-12.79-3.36-4.95-9.93-12.88-14.6-17.63-4.92-4.98-10.62-9.69-13.51-11.14-2.75-1.38-7.03-3.04-9.5-3.68-3.78-0.98-6.51-0.82-17 0.98-6.88 1.19-27.58 5.95-46 10.58-18.43 4.63-35.08 8.42-37 8.41-1.93 0-5.52-1.02-7.99-2.26-2.47-1.24-5.52-3.84-6.78-5.76-1.49-2.29-2.28-4.97-2.26-7.75 0.02-2.34 0.48-5.38 1.03-6.75 0.55-1.38 2.69-4.34 4.75-6.6 2.22-2.42 9.27-7.28 17.25-11.88 7.42-4.28 25.87-14.74 41-23.24 15.12-8.51 43.7-24.51 63.5-35.56 19.8-11.05 76.5-42.6 126-70.11zm-99 95.38c-13.2 7.07-30.98 16.66-39.5 21.32-8.53 4.65-18.43 10.16-22 12.23-3.58 2.07-8.57 5.95-11.11 8.62-2.66 2.81-5.08 6.55-5.74 8.86-0.63 2.2-1.14 4.79-1.14 5.75-0.01 0.96 3.47 5.01 7.72 9 4.25 3.99 13.36 12.69 20.25 19.33 11.46 11.06 12.99 12.19 18.02 13.39 3.37 0.8 7.73 1.06 11.25 0.67 3.16-0.35 7.89-1.53 10.5-2.62 2.61-1.09 5.72-3 6.91-4.25 1.19-1.25 6.32-10.14 11.4-19.77 5.08-9.62 16.15-31.45 24.61-48.5 10.83-21.86 15.37-32.03 15.39-34.5 0.02-2.1-0.66-4.1-1.7-5-0.95-0.82-3.56-1.63-5.79-1.78-2.58-0.18-6.09 0.58-9.57 2.06-3.03 1.29-16.3 8.12-29.5 15.19zm-256 204.02c6.27 0.22 13.37 1.11 16.5 2.06 3.02 0.92 7.19 2.52 9.25 3.56 2.19 1.1 6.11 4.91 9.41 9.14 3.11 3.99 9.98 11.53 15.25 16.76 5.27 5.24 12.74 11.76 16.59 14.49 3.85 2.74 9.47 5.98 12.5 7.21 3.53 1.44 7.65 2.25 11.5 2.27 3.3 0.02 8.7-0.44 12-1.03 3.3-0.58 16.57-3.7 29.5-6.94 12.92-3.23 27.55-6.64 32.5-7.56 5.43-1.01 11.98-1.51 16.5-1.26 5.3 0.28 8.53 1.02 11 2.51 1.92 1.16 4.06 3.28 4.75 4.7 0.69 1.43 1.25 4.18 1.25 6.1 0 1.93-0.63 4.74-1.41 6.25-0.78 1.51-2.69 3.92-4.25 5.35-1.56 1.43-7.79 5.54-13.84 9.13-6.05 3.58-17.3 10.11-25 14.51-7.7 4.4-21.88 12.27-31.5 17.5-9.62 5.23-21.77 11.65-27 14.27-5.23 2.62-12.31 5.83-15.75 7.13-3.44 1.3-8.28 2.36-10.75 2.36-2.48 0-5.84-0.78-7.48-1.75-1.64-0.96-3.87-3.32-4.95-5.25-1.08-1.92-3.27-8.9-4.86-15.5-1.59-6.6-3.81-13.8-4.92-16-1.12-2.2-4.02-6.02-6.46-8.5-2.45-2.47-7.12-6.28-10.39-8.47-3.27-2.18-8.75-4.99-12.19-6.25-3.44-1.25-8.39-2.27-11-2.26-2.61 0.01-6.55 0.83-8.75 1.82-2.2 0.99-5.45 3.57-7.22 5.73-1.77 2.16-3.73 5.73-4.36 7.93-0.93 3.25-0.84 4.94 0.46 9 0.88 2.75 5.23 11.3 9.67 19 4.44 7.7 8.72 16.25 9.52 19 0.8 2.75 1.45 8.38 1.44 12.5 0 4.13-0.71 10.2-1.57 13.5-0.86 3.3-3 8.69-4.75 11.97-1.76 3.29-5.47 8.24-8.27 11-2.79 2.77-9.76 7.69-15.5 10.95-5.73 3.25-22.57 12.75-37.42 21.09-14.85 8.35-35.78 19.94-46.5 25.76-10.72 5.81-24.45 12.95-30.5 15.86-9.15 4.4-12.2 5.38-25.27 6.37l-4.07-4c-4.01-3.94-4.07-4.11-4.12-11.25-0.03-6.41 0.43-8.26 4-16 2.23-4.81 11.57-22.89 20.75-40.18 9.19-17.29 18.06-32.91 19.71-34.71 1.78-1.95 4.02-3.31 5.5-3.35 1.37-0.04 3.31 0.73 4.3 1.71 1.38 1.37 1.7 2.93 1.4 6.78-0.22 2.75-1.88 9.05-3.69 14-1.82 5-3.53 11.89-3.83 15.5-0.5 6.05-0.35 6.69 2.14 9.25 2.27 2.32 3.26 2.67 6.43 2.2 2.06-0.3 6.67-1.49 10.25-2.65 3.57-1.16 9.87-3.64 14-5.52 4.12-1.88 11.55-5.81 16.5-8.74 4.95-2.92 11.87-7.5 15.37-10.18 3.51-2.67 7.18-6.21 8.18-7.86 0.99-1.65 3-6.6 4.47-11 1.95-5.85 2.66-10.01 2.65-15.5-0.01-5.28-0.67-9.28-2.25-13.5-1.22-3.3-3.86-8.7-5.85-12-1.99-3.3-6.51-9.82-10.04-14.5-3.54-4.67-7.55-10.97-8.92-14-1.78-3.93-2.61-7.78-2.9-13.5-0.29-5.5 0.12-10.03 1.29-14.5 0.94-3.57 3.18-9.42 4.99-13 1.81-3.57 5.47-9.39 8.15-12.92 2.67-3.53 7.11-8.31 9.86-10.63 2.75-2.32 7.25-5.63 10-7.35 2.75-1.72 7.92-4.09 11.5-5.26 3.57-1.16 8.52-2.49 11-2.93 2.47-0.45 9.45-0.64 15.5-0.42z"/>
</svg>