<svg version="1.2" xmlns="http://www.w3.org/2000/svg" viewBox="0 0 646 646" width="646" height="646">
	<style>
		.s0 { fill: #93c9da } 
		.s1 { fill: #007fa8 } 
		.s2 { fill: #000000 } 
	</style>
	<path id="Path 0" class="s0" d="m290 1.08c-4.68 0.51-14.13 1.86-21 3.01-6.88 1.14-19.25 3.8-27.5 5.9-8.25 2.09-20.63 5.85-27.5 8.34-6.88 2.49-17.9 6.95-24.5 9.91-6.6 2.97-16.73 8.01-22.5 11.21-5.78 3.2-15.45 9.06-21.5 13.02-6.05 3.96-16.18 11.2-22.5 16.1-6.33 4.9-19.16 16.56-28.52 25.92-9.53 9.52-21.2 22.43-26.5 29.31-5.22 6.76-13.42 18.46-18.24 26-4.82 7.53-12.32 20.9-16.67 29.7-4.34 8.8-10.16 22.07-12.93 29.5-2.77 7.42-6.64 19.35-8.6 26.5-1.97 7.15-4.66 18.62-6 25.5-1.33 6.87-3.12 18.57-3.98 26-0.96 8.36-1.56 22.06-1.56 36 0 13.54 0.6 27.68 1.5 35.5 0.82 7.15 2.42 17.95 3.54 24 1.13 6.05 3.61 16.96 5.51 24.25 1.9 7.29 5.53 18.99 8.06 26 2.54 7.01 6.85 17.7 9.57 23.75 2.73 6.05 7.56 15.72 10.74 21.5 3.18 5.77 7.47 13.2 9.54 16.5l3.76 6c6.49-12.4 9.76-18.03 11.45-20.5 1.69-2.48 5.04-6.32 7.45-8.55 2.41-2.23 5.18-4.48 6.16-5 1.62-0.86 1.13-2.21-5.18-14.45-3.82-7.43-8.73-18-10.91-23.5-2.17-5.5-5.54-14.95-7.48-21-1.94-6.05-4.69-16.18-6.1-22.5-1.41-6.33-3.28-16.23-4.15-22-0.87-5.78-1.91-17.25-2.31-25.5-0.41-8.25-0.41-21.53 0-29.5 0.4-7.98 1.44-19.23 2.31-25 0.87-5.78 2.74-15.68 4.15-22 1.41-6.33 4.15-16.45 6.09-22.5 1.93-6.05 5.43-15.73 7.78-21.5 2.34-5.78 6.53-15 9.3-20.5 2.76-5.5 8.04-14.95 11.73-21 3.68-6.05 10.42-15.95 14.98-22 4.56-6.05 12.28-15.33 17.15-20.61 4.87-5.29 13.13-13.55 18.36-18.37 5.22-4.81 14.45-12.48 20.5-17.03 6.05-4.56 15.95-11.3 22-14.98 6.05-3.69 15.5-8.97 21-11.73 5.5-2.77 14.72-6.96 20.5-9.3 5.77-2.35 15.45-5.85 21.5-7.78 6.05-1.94 16.17-4.68 22.5-6.09 6.32-1.41 16.22-3.28 22-4.15 5.77-0.87 17.02-1.91 25-2.31 7.97-0.41 21.25-0.41 29.5 0 8.25 0.4 19.72 1.44 25.5 2.31 5.77 0.87 15.67 2.74 22 4.15 6.32 1.41 16.45 4.15 22.5 6.09 6.05 1.93 15.72 5.43 21.5 7.78 5.77 2.34 14.21 6.12 18.75 8.39 4.54 2.27 8.7 4.13 9.25 4.13 0.55 0 9.89-4.96 20.75-11.03 10.86-6.07 19.85-11.36 19.98-11.75 0.13-0.4-3.7-3.08-8.5-5.96-4.8-2.89-14.36-8.07-21.23-11.52-6.88-3.46-18.35-8.6-25.5-11.43-7.15-2.83-18.18-6.71-24.5-8.63-6.33-1.91-16.9-4.69-23.5-6.16-6.6-1.48-17.85-3.6-25-4.71-10.3-1.61-19.02-2.09-42-2.34-15.95-0.18-32.83 0.1-37.5 0.61zm291.22 163.85l-11.22 21.07c7.95 15.89 12.17 25.22 14.51 31 2.33 5.77 5.64 14.77 7.35 20 1.71 5.22 4.43 15.12 6.06 22 1.62 6.87 3.68 17.45 4.57 23.5 0.9 6.05 1.96 17.52 2.36 25.5 0.41 7.97 0.41 21.25 0 29.5-0.4 8.25-1.46 19.95-2.36 26-0.89 6.05-2.95 16.62-4.57 23.5-1.63 6.87-4.35 16.77-6.06 22-1.71 5.22-5.02 14.22-7.35 20-2.34 5.77-6.63 15.22-9.52 21-2.9 5.77-8.19 15.22-11.76 21-3.56 5.77-10.2 15.45-14.75 21.5-4.55 6.05-12.17 15.27-16.94 20.5-4.76 5.22-13.02 13.48-18.35 18.35-5.33 4.87-14.64 12.58-20.69 17.13-6.05 4.55-15.73 11.19-21.5 14.75-5.78 3.57-15.23 8.86-21 11.76-5.78 2.89-15.23 7.19-21 9.53-5.78 2.35-15.45 5.85-21.5 7.78-6.05 1.94-16.18 4.68-22.5 6.09-6.33 1.41-16.23 3.28-22 4.15-5.78 0.87-17.25 1.91-25.5 2.31-8.25 0.41-21.53 0.41-29.5 0-7.98-0.4-19.23-1.44-25-2.31-5.78-0.87-15.68-2.74-22-4.15-6.33-1.41-16.45-4.15-22.5-6.09-6.05-1.93-15.73-5.43-21.5-7.78-5.78-2.34-15-6.53-20.5-9.29l-10-5.03c-30.91 17.28-39.84 22.75-39.79 23.3 0.05 0.55 3.85 3.36 8.44 6.24 4.59 2.88 15.55 8.8 24.35 13.16 8.8 4.36 22.07 10.19 29.5 12.96 7.42 2.77 19.35 6.64 26.5 8.6 7.15 1.97 18.62 4.66 25.5 6 6.87 1.33 18.57 3.12 26 3.98 8.37 0.96 22.05 1.56 36 1.56 13.95 0 27.63-0.6 36-1.56 7.42-0.86 19.12-2.65 26-3.98 6.87-1.34 18.35-4.03 25.5-6 7.15-1.96 19.07-5.83 26.5-8.6 7.42-2.77 20.7-8.59 29.5-12.93 8.8-4.35 22.17-11.85 29.7-16.67 7.54-4.82 19.24-13.02 26-18.24 6.87-5.29 19.82-17 29.32-26.5 9.5-9.5 21.21-22.45 26.5-29.32 5.22-6.76 13.42-18.46 18.24-26 4.82-7.53 12.32-20.9 16.67-29.7 4.34-8.8 10.16-22.08 12.93-29.5 2.77-7.43 6.64-19.35 8.6-26.5 1.97-7.15 4.66-18.63 6-25.5 1.33-6.88 3.12-18.58 3.98-26 0.96-8.37 1.56-22.05 1.56-36 0-13.95-0.6-27.63-1.56-36-0.86-7.43-2.65-19.13-3.98-26-1.34-6.88-4.03-18.35-6-25.5-1.96-7.15-5.84-19.08-8.62-26.5-2.77-7.43-8.11-19.8-11.87-27.5-3.75-7.7-9.81-18.95-13.47-25-3.66-6.05-6.97-11.37-7.35-11.82-0.39-0.45-5.75 8.66-11.93 20.25z"/>
	<g id="Arrow color">
		<path id="Path 0" fill-rule="evenodd" class="s1" d="m571.5 45.09l6.75-0.05c4.45-0.03 8 0.56 10.41 1.71 2.01 0.96 4.93 3.21 6.5 5 2.44 2.8 2.84 4.09 2.84 9.25 0 5.44-0.67 7.33-7.12 20.25-3.92 7.84-19.51 37.87-34.66 66.75-15.14 28.87-30.87 58.8-34.96 66.5-4.09 7.7-13.13 24.74-20.1 37.87-6.96 13.13-14.05 25.5-15.74 27.5-1.7 2-5.3 5.07-8 6.84-2.71 1.76-7.62 4.14-10.92 5.28-3.3 1.14-11.18 3.04-17.5 4.23-8.25 1.54-15.6 2.16-26 2.2-12.68 0.04-15.19-0.23-20-2.15-3.03-1.21-7.48-3.9-9.9-5.98-2.42-2.09-7.14-7.84-10.49-12.79-3.36-4.95-9.93-12.88-14.6-17.63-4.92-4.98-10.62-9.69-13.51-11.14-2.75-1.38-7.03-3.04-9.5-3.68-3.78-0.98-6.51-0.82-17 0.98-6.88 1.19-27.58 5.95-46 10.58-18.43 4.63-35.08 8.42-37 8.41-1.93 0-5.52-1.02-7.99-2.26-2.47-1.24-5.52-3.84-6.78-5.76-1.49-2.29-2.28-4.97-2.26-7.75 0.02-2.34 0.48-5.38 1.03-6.75 0.55-1.38 2.69-4.34 4.75-6.6 2.22-2.42 9.27-7.28 17.25-11.88 7.42-4.28 25.87-14.74 41-23.24 15.12-8.51 43.7-24.51 63.5-35.56 19.8-11.05 76.5-42.6 126-70.11zm-99 95.38c-13.2 7.07-30.98 16.66-39.5 21.32-8.53 4.65-18.43 10.16-22 12.23-3.58 2.07-8.57 5.95-11.11 8.62-2.66 2.81-5.08 6.55-5.74 8.86-0.63 2.2-1.14 4.79-1.14 5.75-0.01 0.96 3.47 5.01 7.72 9 4.25 3.99 13.36 12.69 20.25 19.33 11.46 11.06 12.99 12.19 18.02 13.39 3.37 0.8 7.73 1.06 11.25 0.67 3.16-0.35 7.89-1.53 10.5-2.62 2.61-1.09 5.72-3 6.91-4.25 1.19-1.25 6.32-10.14 11.4-19.77 5.08-9.62 16.15-31.45 24.61-48.5 10.83-21.86 15.37-32.03 15.39-34.5 0.02-2.1-0.66-4.1-1.7-5-0.95-0.82-3.56-1.63-5.79-1.78-2.58-0.18-6.09 0.58-9.57 2.06-3.03 1.29-16.3 8.12-29.5 15.19zm-256 204.02c6.27 0.22 13.37 1.11 16.5 2.06 3.03 0.92 7.19 2.52 9.25 3.56 2.19 1.1 6.11 4.91 9.41 9.14 3.11 3.99 9.98 11.53 15.25 16.76 5.27 5.24 12.74 11.76 16.59 14.49 3.85 2.74 9.47 5.98 12.5 7.21 3.53 1.44 7.65 2.25 11.5 2.27 3.3 0.02 8.7-0.44 12-1.03 3.3-0.58 16.57-3.7 29.5-6.94 12.92-3.23 27.55-6.64 32.5-7.56 5.43-1.01 11.98-1.51 16.5-1.26 5.3 0.28 8.53 1.02 11 2.51 1.92 1.16 4.06 3.28 4.75 4.7 0.69 1.43 1.25 4.18 1.25 6.1 0 1.93-0.63 4.74-1.41 6.25-0.78 1.51-2.69 3.92-4.25 5.35-1.56 1.43-7.79 5.54-13.84 9.13-6.05 3.58-17.3 10.11-25 14.51-7.7 4.4-21.88 12.27-31.5 17.5-9.63 5.23-21.78 11.65-27 14.27-5.23 2.62-12.31 5.83-15.75 7.13-3.44 1.3-8.28 2.36-10.75 2.36-2.48 0-5.84-0.78-7.48-1.75-1.64-0.96-3.87-3.32-4.95-5.25-1.08-1.92-3.27-8.9-4.86-15.5-1.59-6.6-3.81-13.8-4.92-16-1.11-2.2-4.02-6.02-6.46-8.5-2.45-2.47-7.12-6.28-10.39-8.47-3.27-2.18-8.75-4.99-12.19-6.25-3.44-1.25-8.39-2.27-11-2.26-2.61 0.01-6.55 0.83-8.75 1.82-2.2 0.99-5.45 3.57-7.22 5.73-1.77 2.16-3.73 5.73-4.36 7.93-0.93 3.25-0.84 4.94 0.46 9 0.88 2.75 5.23 11.3 9.67 19 4.44 7.7 8.72 16.25 9.52 19 0.8 2.75 1.45 8.38 1.44 12.5 0 4.13-0.71 10.2-1.57 13.5-0.86 3.3-3 8.69-4.75 11.97-1.76 3.29-5.47 8.24-8.27 11-2.79 2.77-9.76 7.69-15.5 10.95-5.73 3.25-22.57 12.75-37.42 21.09-14.85 8.35-35.78 19.94-46.5 25.76-10.73 5.81-24.45 12.95-30.5 15.86-9.15 4.4-12.2 5.38-25.27 6.37l-4.07-4c-4.01-3.94-4.07-4.11-4.12-11.25-0.03-6.41 0.43-8.26 4-16 2.23-4.81 11.57-22.89 20.75-40.18 9.19-17.29 18.06-32.91 19.71-34.71 1.78-1.95 4.02-3.31 5.5-3.35 1.37-0.04 3.31 0.73 4.3 1.71 1.38 1.37 1.7 2.93 1.4 6.78-0.22 2.75-1.88 9.05-3.69 14-1.82 5-3.53 11.89-3.83 15.5-0.5 6.05-0.35 6.69 2.14 9.25 2.27 2.32 3.26 2.67 6.43 2.2 2.06-0.3 6.67-1.49 10.25-2.65 3.57-1.16 9.87-3.64 14-5.52 4.12-1.88 11.55-5.81 16.5-8.74 4.95-2.92 11.87-7.5 15.37-10.18 3.51-2.67 7.19-6.21 8.18-7.86 0.99-1.65 3-6.6 4.47-11 1.95-5.85 2.66-10.01 2.65-15.5-0.01-5.28-0.67-9.28-2.25-13.5-1.22-3.3-3.86-8.7-5.85-12-1.99-3.3-6.51-9.82-10.04-14.5-3.54-4.67-7.55-10.97-8.92-14-1.78-3.93-2.61-7.78-2.9-13.5-0.29-5.5 0.12-10.03 1.29-14.5 0.94-3.57 3.18-9.42 4.99-13 1.81-3.57 5.47-9.39 8.15-12.92 2.67-3.53 7.11-8.31 9.86-10.63 2.75-2.32 7.25-5.63 10-7.35 2.75-1.72 7.92-4.09 11.5-5.26 3.57-1.16 8.52-2.49 11-2.93 2.47-0.45 9.45-0.64 15.5-0.42z"/>
		<path id="Path 1" class="s2" d="m316 279.13c-3.03 0.53-8.2 2.26-11.5 3.85-3.3 1.59-8.14 4.94-10.75 7.45-2.61 2.51-5.88 6.37-7.25 8.57-1.38 2.2-3.45 6.81-4.6 10.25-1.68 4.98-2.03 8.08-1.75 15.29 0.31 8.01 0.77 9.9 4.02 16.5 2.49 5.07 5.45 9.14 9.25 12.71 3.07 2.89 8.62 6.7 12.33 8.46 5.69 2.71 8.17 3.28 15.75 3.61 7.23 0.31 10.23-0.03 15.25-1.72 3.44-1.15 8.16-3.31 10.5-4.79 2.34-1.48 6.21-4.74 8.6-7.25 2.39-2.51 5.63-7.26 7.2-10.56 1.58-3.3 3.37-8.93 3.98-12.5 0.81-4.73 0.81-8.27 0.01-13-0.6-3.58-2.43-9.31-4.07-12.75-1.64-3.46-5.31-8.64-8.22-11.59-2.89-2.94-7.5-6.49-10.25-7.89-2.75-1.41-6.8-3.02-9-3.58-2.2-0.57-6.25-1.25-9-1.52-2.75-0.27-7.48-0.06-10.5 0.46z"/>
	</g>
</svg>