<svg version="1.2" xmlns="http://www.w3.org/2000/svg" viewBox="0 0 2773 646" width="2773" height="646">
	<path id="Path 0" fill="#93c9da" d="m1716 1.08c-4.67 0.51-14.13 1.86-21 3.01-6.88 1.14-19.25 3.8-27.5 5.9-8.25 2.09-20.63 5.85-27.5 8.34-6.88 2.49-17.9 6.95-24.5 9.91-6.6 2.97-16.72 8-22.5 11.19-5.78 3.19-16.13 9.54-23 14.1-6.88 4.56-17.34 12.16-23.25 16.88-5.91 4.72-16.2 13.88-22.85 20.34-6.66 6.46-15.32 15.49-19.25 20.07-3.93 4.57-7.26 8.62-7.4 9-0.14 0.37 8.86 1.05 20 1.49 11.14 0.45 22.88 1.12 26.09 1.5l5.84 0.69c14.97-13.73 24.27-21.45 30.32-26.01 6.05-4.56 15.95-11.3 22-14.98 6.05-3.69 15.5-8.97 21-11.73 5.5-2.77 14.72-6.96 20.5-9.3 5.78-2.35 15.45-5.85 21.5-7.78 6.05-1.94 16.17-4.68 22.5-6.09 6.33-1.41 16.22-3.28 22-4.15 5.78-0.87 17.03-1.91 25-2.31 7.97-0.41 21.25-0.41 29.5 0 8.25 0.4 19.72 1.44 25.5 2.31 5.78 0.87 15.67 2.74 22 4.15 6.33 1.41 16.45 4.15 22.5 6.09 6.05 1.93 15.72 5.43 21.5 7.78 5.78 2.34 14.21 6.12 18.75 8.39l8.25 4.13 42-23.5c-13.56-8.18-23.8-13.65-31.5-17.44-7.7-3.79-19.17-8.91-25.5-11.39-6.33-2.48-16.67-6.07-23-7.99-6.33-1.91-16.9-4.69-23.5-6.16-6.6-1.48-17.85-3.6-25-4.71-10.3-1.61-19.02-2.09-42-2.34-15.95-0.18-32.83 0.1-37.5 0.61zm292 164.14c-5.78 11.1-10.61 20.77-10.75 21.48-0.14 0.72 1.83 5.46 4.38 10.55 2.54 5.09 6.54 13.98 8.88 19.75 2.33 5.78 5.64 14.78 7.35 20 1.71 5.23 4.43 15.13 6.06 22 1.62 6.88 3.65 17.23 4.51 23 0.85 5.78 1.55 12.08 1.56 14l0.01 3.5c12.79 2.9 21.45 5.5 27.5 7.66 6.05 2.16 11.79 4.13 12.75 4.38 1.52 0.4 1.75-0.31 1.75-5.29 0-3.16-0.7-11.82-1.56-19.25-0.86-7.42-2.65-19.12-3.98-26-1.34-6.87-4.03-18.35-6-25.5-1.96-7.15-5.84-19.07-8.62-26.5-2.77-7.42-8.12-19.8-11.87-27.5-3.76-7.7-9.9-19.07-13.65-25.26-3.75-6.19-7.04-11.25-7.32-11.23-0.28 0.02-5.22 9.11-11 20.21zm-546.12 159.4c-1.86 1.32-6.3 3.39-9.88 4.6-4.89 1.65-8.92 2.21-16.25 2.24l-9.75 0.04c0 10.85 0.7 20.08 1.56 27.5 0.86 7.43 2.65 19.13 3.98 26 1.34 6.88 4.03 18.35 6 25.5 1.96 7.15 5.84 19.08 8.62 26.5 2.77 7.43 8.12 19.8 11.88 27.5 3.76 7.7 9.63 18.73 13.06 24.5 5.29 8.91 6.4 10.24 7.32 8.78 0.59-0.95 3.11-5.43 5.58-9.95 2.47-4.53 6.97-10.9 10-14.15 3.03-3.25 6.68-6.65 8.12-7.55l2.61-1.63c-10.53-20.15-15.36-30.5-17.54-36-2.17-5.5-5.54-14.95-7.48-21-1.94-6.05-4.69-16.17-6.1-22.5-1.41-6.32-3.27-16-4.12-21.5-0.85-5.5-1.82-16.3-2.16-24-0.34-7.7-0.95-14.74-1.35-15.64-0.64-1.46-1.1-1.37-4.1 0.76zm522.37 183.11l-22.25 0.27c-10.21 11.24-17.52 18.48-22.83 23.35-5.32 4.87-14.62 12.58-20.67 17.13-6.05 4.55-15.72 11.19-21.5 14.76-5.78 3.56-15.22 8.85-21 11.75-5.78 2.89-15.22 7.19-21 9.53-5.78 2.35-15.45 5.85-21.5 7.78-6.05 1.94-16.17 4.68-22.5 6.09-6.33 1.41-16.22 3.28-22 4.15-5.78 0.87-17.25 1.91-25.5 2.31-8.25 0.41-21.53 0.41-29.5 0-7.97-0.4-19.22-1.44-25-2.31-5.78-0.87-15.67-2.74-22-4.15-6.33-1.41-16.45-4.16-22.5-6.1-6.05-1.94-14.37-4.85-18.5-6.47-4.12-1.62-13.12-5.66-20-8.99l-12.5-6.06c-31.46 17.62-40.57 23.07-40.54 23.48 0.02 0.41 4.65 3.48 10.29 6.81 5.64 3.34 16.55 9.14 24.25 12.9 7.7 3.76 20.08 9.11 27.5 11.88 7.42 2.78 19.35 6.66 26.5 8.62 7.15 1.97 18.63 4.66 25.5 6 6.88 1.33 18.58 3.12 26 3.98 8.37 0.96 22.05 1.56 36 1.56 13.95 0 27.63-0.6 36-1.56 7.42-0.86 19.13-2.65 26-3.98 6.88-1.34 18.35-4.03 25.5-6 7.15-1.96 19.08-5.83 26.5-8.6 7.42-2.77 20.7-8.59 29.5-12.93 8.8-4.35 22.17-11.85 29.7-16.67 7.54-4.82 19.24-13.02 26-18.24 6.87-5.29 19.82-17 29.32-26.5 9.65-9.65 21.13-22.36 26.5-29.35 5.22-6.78 9.82-12.97 10.23-13.75 0.6-1.14-0.1-1.37-3.5-1.19-2.34 0.13-14.26 0.35-26.5 0.5z"/>
	<path id="Path 0" fill-rule="evenodd" fill="#ffffff" d="m313 150.07c3.85-0.06 6.84 0.59 9.98 2.17 4.08 2.06 8.92 8.43 53.71 70.76 37.84 52.66 49.24 69.19 49.3 71.5 0.05 1.85-0.75 3.77-2.07 5-1.78 1.66-3.52 2-10.36 2-7.33 0-8.59-0.28-11.64-2.62-1.88-1.45-8.6-10.09-26.42-35.78l-125.5-0.1-12.19 17.44c-10.64 15.22-12.78 17.73-16.75 19.66-3.51 1.69-5.82 2.11-10.06 1.79-3.03-0.23-6.74-1.2-8.25-2.15-2.06-1.31-2.76-2.55-2.78-4.99-0.02-2.71 8.04-14.52 48.62-71.25 26.75-37.4 49.59-68.68 50.74-69.5 1.15-0.82 3.46-2.03 5.13-2.67 1.67-0.65 5.52-1.22 8.54-1.26zm-51.14 96.43c39.25 0.41 62.18 0.41 76.27 0.27l25.64-0.27c-38.18-55.3-49.74-71.8-50.31-72.34-0.7-0.66-9.23 10.91-26.32 35.68zm448.81-96.26c5.45 0.2 7.85 0.77 12.83 4.48l0.25 31.64c0.13 17.4 0.47 31.64 0.75 31.64 0.27 0 25.81-14.49 56.75-32.19 30.93-17.71 58.5-33 61.25-33.97 2.75-0.97 7.36-1.79 10.25-1.8 2.88-0.02 6.82 0.64 8.75 1.46 2.77 1.19 3.5 2.07 3.52 4.25 0.02 1.6-0.93 3.65-2.25 4.89-1.25 1.17-26.26 15.8-55.57 32.5-29.31 16.7-53.27 30.59-53.24 30.86 0.03 0.28 25.09 14.68 55.71 32 30.61 17.33 56.97 32.63 58.58 34 2.26 1.94 2.85 3.18 2.58 5.5-0.25 2.27-1.19 3.43-3.83 4.75-1.93 0.96-5.75 1.76-8.5 1.77-2.75 0.01-6.8-0.62-9-1.41-2.2-0.78-31.23-16.75-125-69.54l-1 66.22-2.84 2.11c-1.87 1.38-4.77 2.23-8.5 2.48-3.11 0.21-7.35-0.13-9.41-0.75-2.07-0.62-4.67-2.36-5.79-3.88-2-2.7-2.03-3.9-2-71 0.02-43.08 0.41-69.17 1.04-70.75 0.55-1.37 2.46-3.18 4.25-4.01 2.17-1.01 5.62-1.43 10.42-1.25zm297.83-0.14c10.45-0.05 23.05 0.4 28 1 4.95 0.61 14.17 2.41 20.5 4 7.57 1.91 15.25 4.75 22.5 8.32 6.16 3.04 13.96 7.87 17.75 11 3.71 3.07 8.83 8.4 11.39 11.83 2.55 3.44 5.7 8.62 7 11.5 1.29 2.89 3.03 8.07 3.84 11.5 0.82 3.44 1.49 10.75 1.49 16.25 0 5.5-0.69 12.93-1.53 16.5-0.84 3.58-3.2 9.85-5.24 13.95-2.37 4.76-6.22 10.12-10.7 14.87-3.85 4.08-9.93 9.36-13.5 11.72-3.58 2.37-9.65 5.72-13.5 7.44-3.85 1.73-10.6 4.21-15 5.53-4.4 1.31-11.83 3.14-16.5 4.06-5.34 1.04-15.96 1.85-28.5 2.18-12.66 0.32-23.86 0.06-30.5-0.71-5.78-0.67-15.68-2.52-22-4.12-7.54-1.91-15.29-4.78-22.5-8.33-6.17-3.04-13.97-7.88-17.75-11-3.72-3.07-8.84-8.4-11.39-11.84-2.56-3.43-5.69-8.5-6.96-11.25-1.28-2.75-3.09-7.92-4.03-11.5-1.09-4.13-1.72-10.33-1.74-17-0.01-5.77 0.57-12.97 1.28-16 0.71-3.02 3.12-9.32 5.36-14 3.24-6.77 5.71-10.14 12.15-16.59 4.44-4.45 11-9.79 14.58-11.86 3.57-2.07 10.1-5.26 14.5-7.08 4.4-1.81 11.82-4.27 16.5-5.46 4.67-1.2 12.32-2.76 17-3.49 4.67-0.73 17.05-1.37 27.5-1.42zm-30 19.39c-3.85 0.93-11.28 3.74-16.5 6.25-7.34 3.51-11.02 6.06-16.16 11.16q-6.65 6.6-9.74 13.1c-1.69 3.58-3.75 9.65-4.58 13.5-0.82 3.85-1.49 9.48-1.49 12.5 0 3.03 0.67 8.65 1.48 12.5 0.81 3.85 2.92 9.93 4.68 13.5 2.01 4.09 5.64 8.94 9.75 13.06 4.74 4.75 8.91 7.73 15.06 10.77 4.67 2.31 13 5.39 18.5 6.84 9.08 2.4 11.79 2.65 29.5 2.74 15.42 0.07 21.28-0.29 28-1.74 4.67-1.01 11.87-3.13 16-4.71 4.12-1.58 10.76-5.14 14.75-7.91 4.05-2.83 8.96-7.36 11.13-10.3 2.14-2.88 4.84-7.16 6-9.5 1.17-2.33 2.81-6.83 3.66-10 0.86-3.19 1.56-9.98 1.59-15.25 0.02-5.22-0.5-11.75-1.17-14.5-0.67-2.75-2.58-7.92-4.24-11.5-2.07-4.44-5.11-8.55-9.63-13-3.96-3.9-9.39-7.95-13.59-10.12-3.85-2-9.93-4.58-13.5-5.75-3.58-1.16-11-2.79-16.5-3.61-5.5-0.83-15.4-1.45-22-1.38-6.6 0.06-14.7 0.47-18 0.89-3.3 0.43-9.15 1.54-13 2.46zm207-19.09c3.85 0.15 8.01 0.91 9.24 1.69 1.24 0.78 2.59 2.09 3 2.91 0.42 0.83 0.98 23.1 1.76 97.5l3 6.38c1.85 3.94 4.91 8.19 8 11.1 2.75 2.59 7.25 5.85 10 7.25 2.75 1.4 7.47 3.29 10.5 4.2 3.02 0.91 9.77 2.31 15 3.11 5.22 0.8 14.22 1.45 20 1.46 5.77 0 14.32-0.45 19-1.02 4.67-0.56 11.65-1.96 15.5-3.11 3.85-1.14 9.25-3.23 12-4.63 2.75-1.4 7.25-4.67 10-7.26 3.08-2.91 6.15-7.16 11-17.48l0.5-48c0.3-29.13 0.89-48.71 1.5-49.81 0.55-0.99 3.02-2.53 5.5-3.42 3.3-1.18 6.23-1.44 11-0.98 4.9 0.48 7.06 1.2 11.05 5.21l-0.04 48c-0.03 36.19-0.36 49.23-1.34 53-0.72 2.75-2.27 7.03-3.43 9.5-1.17 2.48-4.06 6.93-6.43 9.89-2.37 2.96-7.46 7.48-11.31 10.05-3.85 2.56-10.15 5.87-14 7.34-3.85 1.47-10.83 3.57-15.5 4.67-4.68 1.11-13 2.53-18.5 3.16-6.17 0.7-18.43 0.95-32 0.63-14.48-0.34-25.08-1.1-31-2.22-4.95-0.94-11.93-2.61-15.5-3.73-3.58-1.11-10.1-3.83-14.5-6.04-5.76-2.9-9.98-6.01-15.07-11.13-3.94-3.97-8.11-9.33-9.43-12.12-1.3-2.75-2.95-7.25-3.67-10-0.99-3.77-1.32-16.81-1.38-101l2.27-2.15c1.25-1.18 3.18-2.39 4.28-2.69 1.1-0.3 5.15-0.42 9-0.26zm-1120.5 1.07c32.51 0.22 53.17 0.77 58 1.53 4.12 0.66 10.87 2.06 15 3.11 4.12 1.06 10.76 3.49 14.75 5.41 4.08 1.96 9.68 5.78 12.82 8.73 3.17 2.99 6.72 7.62 8.25 10.75 2.37 4.87 2.67 6.66 2.65 15.5-0.03 8.7-0.38 10.72-2.67 15.5-1.62 3.4-4.86 7.55-8.47 10.87-3.22 2.95-8.97 6.83-12.83 8.65-3.85 1.8-9.48 3.99-12.5 4.85-3.03 0.87-10 2.26-15.5 3.1-7.77 1.18-19.54 1.52-95.5 1.53l-0.5 56.29-2.84 2.11c-1.87 1.38-4.76 2.23-8.5 2.48-3.11 0.21-7.35-0.13-9.41-0.75-2.07-0.62-4.67-2.36-5.79-3.88-2-2.7-2.03-3.9-1.96-139.25l2.25-2.55c1.51-1.71 3.89-2.84 7.25-3.44 2.75-0.49 27.72-0.73 55.5-0.54zm-36 74.53c77.6-0.66 84.49-0.97 90.5-2.49 3.85-0.97 9.25-2.76 12-3.96 2.75-1.21 6.72-3.74 8.83-5.62 2.1-1.89 4.68-5.23 5.73-7.43 1.18-2.48 1.91-6.18 1.92-9.75 0.01-3.16-0.68-7.43-1.53-9.5-0.86-2.06-2.99-5.25-4.75-7.09-1.76-1.83-5.68-4.59-8.7-6.11-3.03-1.53-8.43-3.59-12-4.58-5.68-1.58-11.91-1.86-49.18-2.21l-42.67-0.41zm1955.5 100.1c10.45-0.06 22.82 0.37 27.5 0.95 4.67 0.58 11.87 1.75 16 2.6 4.12 0.85 11.1 2.68 15.5 4.07 4.4 1.39 10.81 3.82 14.25 5.4 3.54 1.63 6.73 3.86 7.36 5.13 0.61 1.24 0.84 3.49 0.5 5-0.34 1.52-1.85 3.52-3.36 4.45-1.69 1.04-4.68 1.67-7.75 1.63-3.32-0.05-8.54-1.44-15.5-4.13-5.78-2.23-15.23-5.08-21-6.33-9.03-1.95-13.45-2.27-31.5-2.28-18.41-0.01-22.08 0.26-29.75 2.2-4.81 1.22-11.34 3.52-14.5 5.12-3.16 1.61-7.41 4.64-9.44 6.75-2.03 2.12-4.17 5.08-4.75 6.59-0.58 1.52-1.06 4.33-1.06 6.25 0 1.93 0.84 5.19 1.87 7.25 1.04 2.07 3.62 4.97 5.75 6.47 2.14 1.49 6.35 3.57 9.38 4.62 3.02 1.05 9.1 2.62 13.5 3.49 4.4 0.86 20.6 3.22 36 5.22 15.4 2 32.95 4.89 39 6.42 6.05 1.52 14.6 4.26 19 6.09 6.07 2.52 9.34 4.66 13.56 8.88 4.23 4.23 5.88 6.76 6.91 10.56 0.78 2.91 1.12 7.31 0.82 10.5-0.29 3.03-1.44 7.3-2.55 9.5-1.11 2.2-4.66 6.47-7.88 9.48-3.73 3.48-8.78 6.83-13.86 9.19-4.4 2.05-12.5 4.82-18 6.16-5.5 1.34-14.95 2.99-21 3.67-7.23 0.81-18.9 1.06-34 0.71-14.05-0.32-27.09-1.18-33.5-2.2-5.78-0.92-15.45-2.94-21.5-4.5-6.05-1.56-13.7-4.02-17-5.48-3.3-1.45-7.03-3.63-8.28-4.83-1.25-1.21-2.26-3.21-2.25-4.45 0.02-1.23 0.37-2.99 0.78-3.89 0.41-0.9 1.99-2.25 3.5-3 1.51-0.75 4.77-1.36 7.25-1.36 2.62 0 7.53 1.21 11.75 2.89 3.99 1.58 10.62 3.82 14.75 4.96 4.12 1.15 11.77 2.8 17 3.67 5.22 0.87 17.37 1.84 27 2.16 10.38 0.35 21.56 0.13 27.5-0.53 5.5-0.61 12.7-1.81 16-2.67 3.3-0.87 8.25-2.59 11-3.84 2.75-1.25 6.71-4.04 8.8-6.2 2.09-2.17 4.23-5.51 4.75-7.44 0.52-1.92 0.63-5.07 0.25-7-0.41-2.03-2.19-4.97-4.25-7.01-1.95-1.93-6.25-4.54-9.55-5.79-3.3-1.26-10.28-3.15-15.5-4.2-5.23-1.05-22.1-3.51-37.5-5.47-15.4-1.96-32.28-4.62-37.5-5.92-5.23-1.29-12.88-3.77-17-5.5-4.13-1.73-9.64-4.72-12.25-6.63-2.61-1.91-6.1-5.61-7.76-8.23-1.65-2.61-3.48-7.22-4.07-10.25-0.77-3.92-0.76-6.86 0-10.25 0.59-2.61 1.92-6.43 2.95-8.5 1.04-2.06 4.53-6.22 7.78-9.25 3.26-3.04 9.23-7.15 13.37-9.2 4.11-2.03 11.53-4.85 16.48-6.26 4.95-1.41 13.05-3.19 18-3.95 5.06-0.79 17.3-1.44 28-1.49zm448 0c10.45-0.05 23.05 0.4 28 1 4.95 0.61 14.17 2.4 20.5 4 7.57 1.91 15.26 4.75 22.5 8.32 6.17 3.04 13.96 7.87 17.75 11 3.71 3.07 8.84 8.4 11.39 11.83 2.55 3.44 5.7 8.62 7 11.5 1.3 2.89 3.03 8.07 3.84 11.5 0.82 3.44 1.49 10.75 1.49 16.25 0 5.5-0.69 12.93-1.53 16.5-0.84 3.58-3.19 9.85-5.23 13.95-2.38 4.76-6.23 10.12-10.71 14.87-3.85 4.08-9.93 9.36-13.5 11.72-3.58 2.37-9.65 5.72-13.5 7.44-3.85 1.72-10.6 4.21-15 5.53-4.4 1.31-11.83 3.14-16.5 4.06-5.33 1.04-15.95 1.85-28.5 2.17-12.66 0.33-23.86 0.07-30.5-0.7-5.78-0.67-15.68-2.52-22-4.12-7.54-1.91-15.29-4.78-22.5-8.33-6.17-3.04-13.97-7.88-17.75-11.01-3.71-3.07-8.84-8.39-11.39-11.83-2.55-3.43-5.69-8.5-6.96-11.25-1.27-2.75-3.09-7.92-4.03-11.5-1.09-4.13-1.72-10.33-1.73-17-0.01-5.77 0.56-12.97 1.27-16 0.71-3.02 3.12-9.32 5.36-14 3.24-6.77 5.71-10.14 12.15-16.59 4.44-4.46 11-9.79 14.58-11.86 3.57-2.08 10.1-5.26 14.5-7.08 4.4-1.81 11.82-4.28 16.5-5.47 4.67-1.19 12.32-2.75 17-3.48 4.67-0.73 17.05-1.37 27.5-1.42zm-30 19.39c-3.85 0.93-11.28 3.74-16.5 6.25-7.33 3.51-11.02 6.06-16.16 11.16q-6.65 6.6-9.74 13.1c-1.69 3.58-3.75 9.65-4.57 13.5-0.82 3.85-1.5 9.48-1.5 12.5 0 3.03 0.67 8.65 1.48 12.5 0.81 3.85 2.92 9.93 4.68 13.5 2.01 4.09 5.64 8.94 9.76 13.06 4.74 4.75 8.9 7.73 15.05 10.77 4.67 2.31 13 5.39 18.5 6.84 9.08 2.4 11.79 2.65 29.5 2.74 15.42 0.07 21.28-0.29 28-1.74 4.67-1.01 11.87-3.13 16-4.71 4.12-1.58 10.76-5.14 14.75-7.92 4.06-2.82 8.96-7.35 11.14-10.29 2.13-2.88 4.83-7.16 6-9.5 1.16-2.33 2.8-6.83 3.65-10 0.86-3.19 1.57-9.98 1.59-15.25 0.02-5.22-0.5-11.75-1.17-14.5-0.67-2.75-2.58-7.92-4.24-11.5-2.07-4.44-5.11-8.55-9.62-13-3.97-3.9-9.4-7.95-13.6-10.12-3.85-2-9.93-4.58-13.5-5.75-3.58-1.16-11-2.79-16.5-3.61-5.5-0.83-15.4-1.45-22-1.38-6.6 0.06-14.7 0.46-18 0.89-3.3 0.43-9.15 1.54-13 2.46zm-222.5-18.02c32.51 0.22 53.17 0.77 58 1.53 4.12 0.66 10.87 2.06 15 3.11 4.12 1.06 10.76 3.49 14.75 5.41 4.08 1.96 9.68 5.78 12.82 8.73 3.17 2.99 6.72 7.62 8.25 10.75 2.37 4.87 2.67 6.66 2.65 15.5-0.03 8.7-0.38 10.72-2.66 15.5-1.63 3.4-4.87 7.55-8.47 10.86-3.23 2.96-8.98 6.84-12.84 8.65-3.85 1.81-9.48 4-12.5 4.86-3.03 0.87-10 2.26-15.5 3.1-7.77 1.18-19.54 1.52-95.5 1.53l-0.5 56.29-2.84 2.11c-1.86 1.38-4.76 2.23-8.5 2.48-3.11 0.21-7.35-0.13-9.41-0.75-2.06-0.62-4.67-2.36-5.79-3.88-2-2.7-2.03-3.9-1.96-139.25l2.25-2.55c1.51-1.71 3.89-2.84 7.25-3.44 2.75-0.49 27.72-0.73 55.5-0.54zm-36 74.53c77.6-0.66 84.49-0.97 90.5-2.49 3.85-0.97 9.25-2.76 12-3.96 2.75-1.21 6.72-3.74 8.83-5.62 2.1-1.89 4.68-5.23 5.73-7.43 1.19-2.48 1.92-6.18 1.92-9.75 0.01-3.16-0.68-7.43-1.53-9.5-0.85-2.06-2.99-5.25-4.75-7.09-1.76-1.84-5.68-4.59-8.7-6.11-3.03-1.53-8.43-3.59-12-4.59-5.68-1.57-11.91-1.85-49.18-2.21l-42.67-0.4zm526.5-74.63c73.64 0.1 95.62 0.41 97.75 1.38 1.51 0.69 3.25 2.26 3.86 3.5 0.62 1.24 0.84 3.49 0.5 5-0.38 1.7-1.75 3.32-3.61 4.25-2.52 1.26-9.61 1.5-86 1.5v63.5c0 48.79-0.29 64.09-1.25 66.03-0.69 1.39-2.94 3.19-5 4-2.06 0.81-6.11 1.47-9 1.47-3 0-6.74-0.75-8.74-1.75-1.91-0.96-4.04-2.87-4.73-4.25-0.96-1.92-1.25-17.2-1.28-129l-41.25-0.01c-31.24-0.01-41.86-0.32-43.75-1.28-1.37-0.7-3.06-2.49-3.75-3.99-0.79-1.73-0.94-3.54-0.4-4.97 0.47-1.24 2.16-2.79 3.75-3.45 1.6-0.66 4.03-1.4 5.4-1.63 1.38-0.23 45.25-0.37 97.5-0.3zm-2139-175.89c32.14 0.23 53.77 0.8 58.5 1.54 4.13 0.65 10.88 2.05 15 3.11 4.13 1.07 10.65 3.46 14.5 5.31 3.85 1.85 9.4 5.54 12.34 8.21 3.17 2.87 6.43 7.09 8 10.35 2.28 4.71 2.66 6.8 2.66 14.5-0.01 6.98-0.48 10.01-2.08 13.5-1.14 2.48-3.61 6.24-5.49 8.36-1.89 2.12-5.68 5.35-8.43 7.17-2.75 1.82-8.15 4.53-12 6.01-3.85 1.47-10.82 3.47-24 6.16l4 1.35c2.2 0.74 6.48 3 9.5 5.03 3.62 2.43 12.01 11.12 24.5 25.39 10.45 11.93 19.61 22.9 20.35 24.36 0.74 1.47 1.12 3.57 0.83 4.67-0.28 1.1-2.13 2.79-4.1 3.75-1.97 0.96-5.72 1.76-8.33 1.77-2.61 0.01-6.32-0.51-8.25-1.14-1.92-0.64-4.57-2.11-5.88-3.27-1.31-1.16-10.69-11.56-20.85-23.11-10.15-11.55-20.33-22.73-22.62-24.86-2.28-2.12-5.95-4.77-8.15-5.9-2.2-1.12-6.25-2.71-9-3.53-3.82-1.13-12.39-1.57-67.5-2.21l-0.5 59.29-2.83 2.1c-1.87 1.39-4.77 2.24-8.5 2.49-3.12 0.21-7.36-0.13-9.42-0.75-2.06-0.62-4.67-2.37-5.78-3.88-2-2.7-2.04-3.9-1.97-139.25l2.25-2.55c1.51-1.71 3.9-2.85 7.25-3.45 2.75-0.49 27.95-0.72 56-0.52zm-36.5 71.52c60.23 0 79.22-0.45 83.75-1.1 4.26-0.6 10.45-1.93 13.75-2.96 3.3-1.03 8.14-3.23 10.75-4.9 2.61-1.67 5.99-4.92 7.5-7.22 2.4-3.63 2.75-5.16 2.75-11.82 0-6.66-0.35-8.18-2.75-11.82-1.51-2.3-4.89-5.54-7.5-7.21-2.61-1.67-7.45-3.88-10.75-4.91-3.3-1.02-9.49-2.36-13.75-2.96-4.53-0.64-23.52-1.1-45.75-1.1h-38zm990.5-71.52c32.14 0.23 53.77 0.8 58.5 1.54 4.13 0.65 10.88 2.05 15 3.11 4.13 1.07 10.65 3.46 14.5 5.31 3.85 1.85 9.4 5.54 12.34 8.21 3.17 2.87 6.43 7.09 8 10.35 2.28 4.71 2.66 6.8 2.66 14.5-0.01 6.98-0.48 10.01-2.08 13.5-1.14 2.48-3.61 6.24-5.49 8.36-1.89 2.12-5.68 5.35-8.43 7.17-2.75 1.82-8.15 4.53-12 6.01-3.85 1.47-10.82 3.47-24 6.16l4 1.35c2.2 0.74 6.48 3 9.5 5.03 3.62 2.43 12.01 11.12 24.5 25.39 10.45 11.93 19.61 22.9 20.35 24.36 0.74 1.47 1.12 3.57 0.83 4.67-0.28 1.1-2.13 2.79-4.1 3.75-1.97 0.96-5.72 1.76-8.33 1.77-2.61 0.01-6.32-0.51-8.25-1.14-1.92-0.64-4.57-2.11-5.88-3.27-1.31-1.16-10.69-11.56-20.85-23.11-10.15-11.55-20.33-22.73-22.62-24.86-2.28-2.12-5.95-4.77-8.15-5.9-2.2-1.12-6.25-2.71-9-3.53-3.82-1.13-12.39-1.57-67.5-2.21l-0.5 59.29-2.83 2.1c-1.87 1.39-4.77 2.24-8.5 2.49-3.12 0.21-7.36-0.13-9.42-0.75-2.06-0.62-4.67-2.37-5.78-3.88-2-2.7-2.04-3.9-1.97-139.25l2.25-2.55c1.51-1.71 3.9-2.85 7.25-3.45 2.75-0.49 27.95-0.72 56-0.52zm-36.5 71.52c60.23 0 79.22-0.45 83.75-1.1 4.26-0.6 10.45-1.93 13.75-2.96 3.3-1.03 8.14-3.23 10.75-4.9 2.61-1.67 5.99-4.92 7.5-7.22 2.4-3.63 2.75-5.16 2.75-11.82 0-6.66-0.35-8.18-2.75-11.82-1.51-2.3-4.89-5.54-7.5-7.21-2.61-1.67-7.45-3.88-10.75-4.91-3.3-1.02-9.49-2.36-13.75-2.96-4.53-0.64-23.52-1.1-45.75-1.1h-38z"/>
	<g id="Arrow color">
		<path id="Path 0" fill-rule="evenodd" fill="#007fa8" d="m1997.5 45.09l6.75-0.05c4.45-0.03 8 0.56 10.41 1.71 2.01 0.96 4.93 3.21 6.5 5 2.44 2.8 2.84 4.09 2.84 9.25 0 5.44-0.67 7.33-7.12 20.25-3.92 7.84-19.51 37.88-34.66 66.75-15.14 28.87-30.87 58.8-34.96 66.5-4.09 7.7-13.13 24.74-20.1 37.87-6.96 13.13-14.05 25.5-15.74 27.5-1.7 2-5.3 5.07-8 6.84-2.71 1.76-7.62 4.14-10.92 5.28-3.3 1.14-11.17 3.04-17.5 4.23-8.25 1.54-15.6 2.16-26 2.2-12.68 0.04-15.19-0.23-20-2.15-3.03-1.21-7.48-3.9-9.9-5.98-2.42-2.09-7.14-7.84-10.49-12.79-3.36-4.95-9.93-12.88-14.6-17.63-4.92-4.98-10.62-9.69-13.51-11.14-2.75-1.38-7.03-3.04-9.5-3.68-3.78-0.98-6.51-0.82-17 0.98-6.88 1.19-27.58 5.95-46 10.58-18.42 4.63-35.08 8.42-37 8.41-1.92 0-5.52-1.02-7.99-2.26-2.47-1.24-5.52-3.83-6.78-5.76-1.49-2.29-2.28-4.97-2.26-7.75 0.02-2.34 0.48-5.38 1.03-6.75 0.55-1.38 2.69-4.34 4.75-6.6 2.22-2.42 9.27-7.28 17.25-11.88 7.42-4.28 25.88-14.74 41-23.24 15.13-8.51 43.7-24.51 63.5-35.56 19.8-11.05 76.5-42.6 126-70.11zm-99 95.38c-13.2 7.07-30.97 16.66-39.5 21.32-8.53 4.65-18.42 10.16-22 12.23-3.58 2.07-8.57 5.95-11.11 8.62-2.66 2.81-5.08 6.55-5.74 8.86-0.63 2.2-1.14 4.79-1.14 5.75-0.01 0.96 3.47 5.01 7.72 9 4.25 3.99 13.36 12.69 20.25 19.33 11.46 11.06 12.99 12.19 18.02 13.39 3.37 0.8 7.73 1.06 11.25 0.67 3.16-0.35 7.89-1.53 10.5-2.62 2.61-1.09 5.72-3 6.91-4.25 1.19-1.25 6.32-10.14 11.4-19.77 5.08-9.62 16.15-31.45 24.61-48.5 10.83-21.86 15.37-32.03 15.39-34.5 0.02-2.1-0.66-4.1-1.7-5-0.95-0.82-3.56-1.63-5.79-1.78-2.58-0.18-6.09 0.58-9.57 2.06-3.03 1.29-16.3 8.12-29.5 15.19zm-256 204.02c6.27 0.22 13.37 1.11 16.5 2.06 3.03 0.92 7.19 2.52 9.25 3.56 2.19 1.1 6.11 4.91 9.41 9.14 3.11 3.99 9.98 11.53 15.25 16.76 5.27 5.24 12.74 11.76 16.59 14.49 3.85 2.74 9.47 5.98 12.5 7.21 3.53 1.44 7.65 2.25 11.5 2.27 3.3 0.02 8.7-0.44 12-1.03 3.3-0.58 16.58-3.7 29.5-6.94 12.92-3.23 27.55-6.64 32.5-7.56 5.43-1.01 11.98-1.51 16.5-1.26 5.3 0.28 8.53 1.02 11 2.51 1.92 1.16 4.06 3.28 4.75 4.7 0.69 1.43 1.25 4.18 1.25 6.1 0 1.93-0.63 4.74-1.41 6.25-0.78 1.51-2.69 3.92-4.25 5.35-1.56 1.43-7.79 5.54-13.84 9.13-6.05 3.58-17.3 10.11-25 14.51-7.7 4.4-21.88 12.27-31.5 17.5-9.63 5.23-21.78 11.65-27 14.27-5.22 2.62-12.31 5.83-15.75 7.13-3.44 1.3-8.28 2.36-10.75 2.36-2.48 0-5.84-0.78-7.48-1.75-1.64-0.96-3.87-3.32-4.95-5.25-1.08-1.92-3.27-8.9-4.86-15.5-1.59-6.6-3.81-13.8-4.92-16-1.11-2.2-4.02-6.02-6.46-8.5-2.45-2.47-7.12-6.28-10.39-8.47-3.27-2.18-8.75-4.99-12.19-6.25-3.44-1.25-8.39-2.27-11-2.26-2.61 0.01-6.55 0.83-8.75 1.82-2.2 0.99-5.45 3.57-7.22 5.73-1.77 2.16-3.73 5.73-4.36 7.93-0.93 3.25-0.84 4.94 0.46 9 0.88 2.75 5.23 11.3 9.67 19 4.44 7.7 8.72 16.25 9.52 19 0.8 2.75 1.45 8.38 1.44 12.5 0 4.13-0.71 10.2-1.57 13.5-0.86 3.3-3 8.69-4.75 11.97-1.76 3.29-5.47 8.24-8.27 11-2.79 2.77-9.76 7.69-15.5 10.95-5.73 3.25-22.57 12.75-37.42 21.09-14.85 8.35-35.78 19.94-46.5 25.76-10.72 5.81-24.45 12.95-30.5 15.86-9.15 4.4-12.2 5.38-25.27 6.37l-4.07-4c-4.01-3.94-4.07-4.11-4.12-11.25-0.03-6.41 0.43-8.26 4-16 2.23-4.81 11.57-22.89 20.75-40.18 9.19-17.29 18.06-32.91 19.71-34.71 1.78-1.95 4.02-3.31 5.5-3.35 1.38-0.04 3.31 0.73 4.3 1.71 1.38 1.37 1.7 2.93 1.4 6.78-0.22 2.75-1.88 9.05-3.69 14-1.82 5-3.53 11.89-3.83 15.5-0.5 6.05-0.35 6.69 2.14 9.25 2.27 2.32 3.26 2.67 6.43 2.2 2.06-0.3 6.67-1.49 10.25-2.65 3.58-1.16 9.88-3.64 14-5.52 4.13-1.88 11.55-5.81 16.5-8.74 4.95-2.92 11.87-7.5 15.37-10.18 3.51-2.67 7.19-6.21 8.18-7.86 0.99-1.65 3-6.6 4.47-11 1.95-5.85 2.66-10.01 2.65-15.5-0.01-5.28-0.67-9.28-2.25-13.5-1.22-3.3-3.86-8.7-5.85-12-1.99-3.3-6.51-9.82-10.04-14.5-3.54-4.67-7.55-10.97-8.92-14-1.78-3.93-2.61-7.78-2.9-13.5-0.29-5.5 0.12-10.03 1.29-14.5 0.94-3.57 3.18-9.42 4.99-13 1.81-3.57 5.47-9.39 8.15-12.92 2.67-3.53 7.11-8.31 9.86-10.63 2.75-2.32 7.25-5.63 10-7.35 2.75-1.72 7.92-4.09 11.5-5.26 3.58-1.16 8.53-2.49 11-2.93 2.47-0.45 9.45-0.64 15.5-0.42z"/>
		<path id="Path 1" fill="#ffffff" d="m1737 279.78c-3.03 0.99-7.53 2.96-10 4.38-2.47 1.42-6.9 5.23-9.84 8.46-2.94 3.24-6.42 8.24-7.75 11.13-1.33 2.89-2.95 8.29-3.6 12-0.92 5.23-0.92 8.22 0 13.25 0.66 3.58 2.48 9.2 4.04 12.5 1.56 3.3 4.87 8.25 7.33 11 2.65 2.94 7.34 6.52 11.41 8.69 4.14 2.22 9.71 4.2 13.91 4.96 5.49 0.98 8.51 1 14 0.08 3.85-0.65 9.47-2.42 12.5-3.94 3.03-1.51 7.97-5.06 11-7.87 3.03-2.82 6.91-7.78 8.63-11.02 1.72-3.25 3.7-8.37 4.39-11.4 0.79-3.44 1.04-8.5 0.68-13.5-0.47-6.39-1.3-9.46-4.14-15.25-2.08-4.22-5.65-9.34-8.56-12.25-2.88-2.88-8.07-6.52-12.25-8.58-6.42-3.18-8.33-3.63-16.75-4.01-7.34-0.33-10.75-0.02-15 1.37z"/>
	</g>
</svg>